<?xml version="1.0" encoding="utf-8"?><!-- Uploaded to: SVG Repo, www.svgrepo.com, Generator: SVG Repo Mixer Tools -->
<svg width="800px" height="800px" viewBox="0 0 64 64" xmlns="http://www.w3.org/2000/svg"><path d="m58.68 8.49a3.37 3.37 0 0 0 -5.88-1.49 2.7 2.7 0 0 0 -.12 3.83s-3 3.46-3.13 3.59-3.29-2.09-4-1.88-3 5-3 5-7-7.91-11.21-7.29-6 6.38-6 6.38-1.79-.5-2.2-.54-.25-1.55-1.25-2.55-3.13-.75-3.13-.75-2.25-2.54-3.33-2.62-2.75 2.58-2.84 2.71-1.16-.67-1.16-.67 1-3.17-1.67-3.5-5.67 2.17-4 4.58a3.36 3.36 0 0 0 3.84 1.54 42 42 0 0 0 4.29 3.17c.37 0 2-2.66 2.16-3s2.13 2 2.8 2.83a38 38 0 0 0 4.25 3.46s-4.46 11-4.67 16.66 2.79 8 6.5 9.42 9.07.83 9.07.83l-.21 2a8.39 8.39 0 0 0 -.83.46 11.36 11.36 0 0 0 -1.71 2.08s-1.25-.74-1.86.38.75 2.58 1.91 2.29.67-2 .67-2a9.34 9.34 0 0 1 .54-1 1.28 1.28 0 0 1 1.09-.75s.08 1 .08 1.63.92 1.2.92 1.2-.05.92-.05 1-2.33.29-2.7.45.12 1.71.54 2.13 2.79-.79 3-1a14.61 14.61 0 0 0 -.13-2.71h.67s.21 2.38.29 2.58a5.44 5.44 0 0 0 2 .71c.46 0 1.29-1 1.29-1.66s-2.62-.84-2.62-.84l-.09-1 .13-.37a19.31 19.31 0 0 0 0-2.71h2.79s.33.29.62.5a1.52 1.52 0 0 0 1.66-.04c.59-.5.79-2.58-.75-2.66a1.84 1.84 0 0 0 -1.91 1.33l-3.17-.46-.37-1.74s1.59-.12 2.55-.25a25.3 25.3 0 0 0 7.75-2.54c4.16-2 4.66-6 4.16-12.58a21.32 21.32 0 0 0 -4.62-11.3s1.37-3.7 1.46-3.87 2.83 1.12 3.33 1 4.71-6.21 4.71-6.21 4.33-.84 3.54-3.76zm-27.68 45.96c-.33.25-1.29-.58-.5-1.17.27-.22.8.92.5 1.17zm9.83-4.87c.62 0 1 .16 1 .7s-.75.75-1 .55-.36-1.25-.03-1.25zm-32.45-36a1.65 1.65 0 0 1 -1.78-1.8c.08-.45.54-1.54 1.58-1.58s2.12-.08 2.29 1.21-.67 2.04-2.12 2.21zm11.41 3.66c-1.58-2.37-2.5-3.29-3.16-3.58s-.92-.42-1.17-.17-1.25 2.59-1.83 2.67-2.88-1.75-2.88-2 .46-.54.71-.58 1.21 1 1.54.71 2.67-3.09 2.83-3 2.59 3 3 2.87 1.21-.62 1.71-.37 1.17.62 1.25 1.08.13 2.33.75 2.46 2.21.21 2.17.42-1.13 2.41-1.13 2.41a7.28 7.28 0 0 1 -3.82-2.88zm16.31 35.88a1.59 1.59 0 0 1 -1.5.21 17.92 17.92 0 0 1 .33-4.21c.21-.32 1.46 3.62 1.17 4zm12.25-17.67c-.17 0-1.84-1.21-2-1.17s-.38.55-.25.67 2.12 1.21 2.16 1.5-.08 1.13-.08 1.42a2 2 0 0 1 -.08.54 17.82 17.82 0 0 0 -2.63-1.41c-.12.13-.54.75-.33.84a15.32 15.32 0 0 1 2.79 1.7 4.53 4.53 0 0 1 -.5 1.17l-.17.21-2.83-2s-.88.42-.5.75 3 2 2.83 2.29-.91 1.04-.91 1.04a20.28 20.28 0 0 0 -2.85-2c-.29 0-.66.38-.5.54s2.67 2.09 2.5 2.21-1.08.63-1.08.63-2.08-1.55-2.25-1.59-.54.21-.54.38 2.12 1.58 2 1.66a7.46 7.46 0 0 1 -2 .63c-.13-.18-1.33-1.46-1.78-1.46s-.67.25-.5.42 1.54 1.17 1.37 1.29-7.33 1.42-11.37.71-6.59-1.72-7.85-5.26.71-11.08 2.88-16.54 4.34-11.62 7.47-12.71c1.89-.63 6.79 2.62 11.7 9s5.46 14.58 5.3 14.54zm5.5-23.58c-.13.16-3.67 5.37-3.84 5.33s-3.01-1.5-3.25-1.2-1.83 4.42-2 4.17-1.46-2-1.46-2 2.09-4.75 2.63-4.46 3 2.17 3.42 2 3.91-4.29 4.12-4.17.53.16.38.33zm3.58-2.21a2.28 2.28 0 0 1 -3.83.42c-1.25-1.55.6-2.87 1.12-3 2.38-.63 3.21 1.37 2.71 2.58zm-33.79 30.21a3 3 0 0 0 -1 1.58.46.46 0 0 0 .37.54c.21 0 .3-.12.42-.62s.63-.79.88-1-.43-.67-.67-.5zm4.21 3.21c-1.38-.3-1.83-1.63-2.17-1.63-.83 0-.58 1.25.42 2.13a9.56 9.56 0 0 0 4.08 1.62 1 1 0 0 0 .87-1.2c-.16-.47-1.83-.63-3.2-.92zm1.7-24c.21-.17.13-.34.55-1.59a3.56 3.56 0 0 1 1.75-1.83c.16-.17.08-.42-.17-.67s-1.42.13-2.08 1.75-.81 2.18-.75 2.3.5.24.7.08zm-1.66 6c.21 0 1.37-.92 3.66-1.92a8.8 8.8 0 0 1 4.8-.46 4.22 4.22 0 0 0 .12-1.08c0-.42-2.12-.58-4.87.29s-4.31 2.2-4.25 2.46.33.75.54.75zm5.25-.08c-6.13 1.58-7.54 5.88-6.88 9.83s3.88 6.34 10 5.55 7.58-6 6.88-9.67-5.75-6.86-10-5.71zm2.86 14c-5 .65-7.67-1.31-8.22-4.58s.62-6.81 5.68-8.11c3.51-.91 7.63 1.65 8.22 4.71s-.68 7.31-5.68 7.98zm-2.17-10.63c-3.39.87-4.17 3.25-3.81 5.44s2.15 3.51 5.52 3.07a4.32 4.32 0 0 0 3.8-5.35c-.34-2.06-3.16-3.77-5.51-3.16zm3.18 3c-.29.46-2.25.58-2.46.37s-.25-1.66.34-2 2.41 1.17 2.11 1.63z" fill="#1d1d1b"/></svg>