<?xml version="1.0" encoding="iso-8859-1"?>
<!-- Uploaded to: SVG Repo, www.svgrepo.com, Generator: SVG Repo Mixer Tools -->
<svg fill="#000000" height="800px" width="800px" version="1.1" id="Layer_1" xmlns="http://www.w3.org/2000/svg" xmlns:xlink="http://www.w3.org/1999/xlink" 
	 viewBox="0 0 512 512" xml:space="preserve">
<g>
	<g>
		<path d="M477.553,314.783c-18.995,0-34.448,15.453-34.448,34.447c0,18.995,15.453,34.448,34.448,34.448
			c18.994,0,34.447-15.453,34.447-34.448C512,330.236,496.547,314.783,477.553,314.783z M477.553,361.398
			c-6.709,0-12.169-5.458-12.169-12.169c0-6.708,5.458-12.168,12.169-12.168c6.708,0,12.168,5.458,12.168,12.168
			C489.721,355.94,484.262,361.398,477.553,361.398z"/>
	</g>
</g>
<g>
	<g>
		<path d="M300.123,137.284c-0.134-0.713-0.357-1.415-0.635-2.094c-0.278-0.668-0.624-1.314-1.025-1.916
			c-0.4-0.614-0.868-1.182-1.381-1.694c-2.583-2.583-6.428-3.776-10.048-3.04c-0.713,0.134-1.415,0.355-2.083,0.634
			c-0.68,0.278-1.325,0.614-1.926,1.014c-0.614,0.412-1.182,0.88-1.694,1.392c-0.512,0.512-0.98,1.081-1.381,1.694
			c-0.412,0.602-0.746,1.248-1.025,1.916c-0.279,0.68-0.501,1.381-0.646,2.094c-0.145,0.713-0.211,1.448-0.211,2.172
			c0,0.723,0.067,1.459,0.211,2.172c0.145,0.714,0.369,1.416,0.647,2.084c0.279,0.678,0.613,1.324,1.025,1.926
			c0.401,0.613,0.869,1.182,1.381,1.694c0.512,0.512,1.081,0.98,1.694,1.38c0.602,0.401,1.247,0.746,1.926,1.025
			c0.669,0.279,1.37,0.501,2.083,0.635c0.713,0.145,1.448,0.223,2.172,0.223c2.93,0,5.804-1.192,7.875-3.264
			c0.514-0.512,0.981-1.082,1.381-1.694c0.401-0.602,0.746-1.248,1.025-1.926c0.279-0.669,0.501-1.37,0.635-2.083
			c0.145-0.714,0.223-1.449,0.223-2.172C300.346,138.733,300.268,137.996,300.123,137.284z"/>
	</g>
</g>
<g>
	<g>
		<path d="M437.61,197.217h39.947c18.993,0,34.444-15.451,34.444-34.444c0-19-15.451-34.456-34.444-34.456h-154.93
			c-6.151,0-11.14,4.988-11.14,11.14s4.988,11.14,11.14,11.14h154.93c6.707,0,12.164,5.462,12.164,12.177
			c0,6.707-5.456,12.164-12.164,12.164H437.61c-18.993,0-34.444,15.451-34.444,34.444c0,18.982,15.447,34.438,34.444,34.455h18.336
			c3.247,0,6.304,1.267,8.598,3.552c2.3,2.3,3.567,5.359,3.567,8.611c0,6.707-5.456,12.164-12.165,12.164h-71.037
			c-18.999,0-34.455,15.456-34.455,34.455c0,18.993,15.456,34.444,34.455,34.444h9.469c3.252,0,6.301,1.263,8.61,3.578
			c2.293,2.286,3.554,5.335,3.554,8.586c0,6.714-5.456,12.177-12.165,12.177l-194.579-0.002c6.646-4.566,12.907-9.795,18.697-15.652
			c21.445-21.693,34.195-49.751,36.491-79.862c0.002-0.03,0.006-0.061,0.008-0.092c0.071-0.945,0.13-1.891,0.18-2.841
			c0.008-0.148,0.02-0.296,0.027-0.445c0.045-0.879,0.075-1.76,0.101-2.642c0.006-0.207,0.017-0.413,0.022-0.62
			c0.027-1.081,0.041-2.162,0.041-3.247c0-1.252-0.023-2.498-0.059-3.741c-0.011-0.391-0.03-0.779-0.045-1.169
			c-0.033-0.867-0.072-1.732-0.122-2.594c-0.026-0.432-0.053-0.863-0.082-1.294c-0.058-0.854-0.127-1.707-0.202-2.555
			c-0.035-0.391-0.067-0.782-0.105-1.172c-0.109-1.113-0.231-2.221-0.369-3.325c-0.013-0.108-0.023-0.216-0.037-0.324
			c-0.155-1.216-0.33-2.425-0.518-3.63c-0.053-0.344-0.115-0.685-0.17-1.028c-0.144-0.868-0.293-1.733-0.453-2.596
			c-0.075-0.403-0.153-0.804-0.232-1.206c-0.164-0.834-0.336-1.664-0.516-2.492c-0.08-0.368-0.157-0.735-0.241-1.102
			c-0.233-1.03-0.479-2.055-0.737-3.077c-0.037-0.144-0.069-0.29-0.106-0.433c-0.302-1.176-0.623-2.345-0.957-3.508
			c-0.081-0.282-0.168-0.561-0.252-0.843c-0.258-0.877-0.525-1.749-0.802-2.618c-0.115-0.361-0.233-0.72-0.351-1.078
			c-0.268-0.815-0.545-1.629-0.829-2.437c-0.118-0.336-0.235-0.673-0.356-1.009c-0.348-0.961-0.705-1.916-1.075-2.867
			c-0.061-0.157-0.119-0.316-0.18-0.473c-0.443-1.127-0.902-2.246-1.377-3.357c-0.09-0.212-0.185-0.42-0.276-0.632
			c-0.383-0.883-0.774-1.762-1.175-2.636c-0.147-0.319-0.296-0.635-0.446-0.952c-0.37-0.785-0.746-1.566-1.131-2.343
			c-0.153-0.309-0.305-0.618-0.46-0.926c-0.448-0.886-0.906-1.766-1.374-2.639c-0.09-0.167-0.176-0.338-0.267-0.505
			c-0.576-1.064-1.165-2.119-1.77-3.164c-0.084-0.144-0.17-0.285-0.254-0.43c-0.511-0.877-1.034-1.747-1.565-2.61
			c-0.173-0.281-0.349-0.559-0.524-0.838c-0.466-0.743-0.938-1.482-1.418-2.214c-0.185-0.282-0.37-0.565-0.557-0.845
			c-0.534-0.8-1.076-1.592-1.626-2.378c-0.126-0.18-0.25-0.363-0.377-0.543c-0.696-0.985-1.405-1.958-2.128-2.922
			c-0.062-0.083-0.128-0.165-0.19-0.248c-0.644-0.853-1.3-1.698-1.964-2.534c-0.199-0.252-0.402-0.5-0.604-0.75
			c-0.548-0.68-1.103-1.355-1.665-2.023c-0.222-0.264-0.444-0.528-0.668-0.79c-0.598-0.7-1.204-1.392-1.818-2.079
			c-0.174-0.194-0.344-0.391-0.519-0.585c-0.803-0.889-1.616-1.768-2.444-2.633c-0.029-0.03-0.058-0.059-0.087-0.089
			c-0.779-0.813-1.57-1.614-2.369-2.406c-0.229-0.228-0.463-0.452-0.695-0.678c-0.617-0.603-1.239-1.199-1.868-1.788
			c-0.264-0.248-0.529-0.495-0.795-0.741c-0.647-0.597-1.3-1.185-1.959-1.768c-0.226-0.201-0.45-0.403-0.677-0.602
			c-1.773-1.547-3.589-3.044-5.446-4.494c-0.263-0.205-0.529-0.406-0.794-0.608c-0.672-0.516-1.348-1.026-2.031-1.529
			c-0.309-0.228-0.619-0.454-0.93-0.68c-0.682-0.492-1.369-0.977-2.06-1.457c-0.197-0.136-0.389-0.279-0.586-0.414h56.116
			c6.151,0,11.14-4.988,11.14-11.14c0-6.151-4.988-11.14-11.14-11.14H127.682C57.278,128.318,0,185.596,0,256.001
			s57.278,127.682,127.682,127.682c0.49,0,0.977-0.013,1.466-0.019c0.001,0,0.002,0,0.002,0l79.83,0.019h185.397
			c18.992,0,34.444-15.456,34.444-34.456c0-9.214-3.588-17.867-10.08-24.341c-6.498-6.514-15.15-10.101-24.365-10.101h-9.469
			c-6.713,0-12.176-5.456-12.176-12.164c0-6.713,5.462-12.176,12.176-12.176h71.037c18.992,0,34.444-15.451,34.444-34.444
			c0-9.202-3.584-17.855-10.103-24.376c-6.511-6.492-15.154-10.068-24.341-10.068H437.62c-6.713-0.006-12.174-5.467-12.174-12.176
			S430.901,197.217,437.61,197.217z M129.015,361.386c-0.003,0-0.007,0-0.01,0c-0.441,0.006-0.881,0.017-1.323,0.017
			c-58.119,0.001-105.402-47.282-105.402-105.402s47.283-105.403,105.403-105.403c58.12,0,105.403,47.283,105.403,105.403
			C233.086,313.399,186.4,360.675,129.015,361.386z"/>
	</g>
</g>
<g>
	<g>
		<path d="M66.414,200.302c-12.285,0-22.279,9.995-22.279,22.279s9.994,22.279,22.279,22.279c12.285,0,22.279-9.994,22.279-22.279
			S78.699,200.302,66.414,200.302z"/>
	</g>
</g>
<g>
	<g>
		<path d="M93.532,248.486c-18.427,0-33.419,14.992-33.419,33.419s14.992,33.419,33.419,33.419s33.419-14.992,33.419-33.419
			S111.959,248.486,93.532,248.486z M93.532,293.044c-6.142,0-11.14-4.997-11.14-11.14s4.997-11.14,11.14-11.14
			s11.14,4.997,11.14,11.14S99.674,293.044,93.532,293.044z"/>
	</g>
</g>
</svg>