<?xml version="1.0" encoding="utf-8"?><!-- Uploaded to: SVG Repo, www.svgrepo.com, Generator: SVG Repo Mixer Tools -->
<svg width="800px" height="800px" viewBox="0 0 64 64" xmlns="http://www.w3.org/2000/svg"><path d="m30.59 20.29c-5.13.75-6.66 4.82-5.63 7.5a6.1 6.1 0 0 0 6.63 4 5.3 5.3 0 0 0 4.41-6.56c-.82-3.23-2.91-5.3-5.41-4.94zm1.06 9.63c-1.59.25-3.94 0-4.72-2.41s0-5.34 3.63-5.56c1.44-.09 3.25.72 3.72 3.44s-1.03 4.28-2.63 4.53zm-13.59-2.92c.22-.12.22-1.25 1.22-3.53a9.54 9.54 0 0 1 2.72-3.61s-.49-.82-.72-.75c-1 .28-1.69 1.78-2.85 3.78a9.51 9.51 0 0 0 -1.28 4c.03.11.69.19.91.11zm3.25 8.69c.06-1-.54-2.56-2.06-2.1-2.85.88-1.79 3.13-.5 3.69a1.89 1.89 0 0 0 2.56-1.64zm-1-.13a.91.91 0 0 1 -1.34.72c-.63-.28-1-1 .28-1.78.56-.36 1.25.29 1.09 1.01zm31.09 1.88a2.41 2.41 0 0 1 -.78-1.69c.1-.59 1.69-4.25 1.1-6.19s-1.57-2-2.94-3-.38-3.9-.38-5.34-2.4-3.22-4.22-4.33-.75-3.25-1-4.75-3.31-3.53-4.18-4.14-2-1.68-2.78-1.53c-2.82.53-10.44 2.73-14.04 5.76s-7.68 7.69-9.25 12.41-2 8.94.32 15.78 7 11.37 13.4 14.84a20.33 20.33 0 0 0 13.6 1.82c.71-.16.9-.57 2.87-2.19s5.66-5 6.19-6.06a5.18 5.18 0 0 0 0-3.5c-.28-.63 1.16-1.94 2.44-3.91a3.18 3.18 0 0 0 -.32-4.03zm-9.15-19.24a8.3 8.3 0 0 1 1.46 1 2.92 2.92 0 0 1 -.71 1.25c-.44.31-1 .66-1.32.22s-.06-2.38.57-2.47zm-11.25 36.63a7.68 7.68 0 0 1 -3.88-1.54c-1.81-1.25-2.5-1.81-2.41-2a4.35 4.35 0 0 1 3.94.21c1.35 1.08 2.72 3.26 2.35 3.33zm15.18-5.72a6.75 6.75 0 0 1 -1.06 1.47c-.31.28-.47.65-.59.43a2.31 2.31 0 0 1 -.07-1.53 1.74 1.74 0 0 1 1.5-.62c.16.14.29.03.22.25zm1.44-1.5a2.8 2.8 0 0 1 -.81 1.09s-.13-.78-1.25-.62a2.85 2.85 0 0 0 -2.13 1.4c-.15.44.66 2.16.35 2.56a8 8 0 0 1 -4.07 2.79 26 26 0 0 1 -5.87.18c-.84-.09-1.59-.12-1.59-.12a19 19 0 0 0 -2.66-4.13c-1.09-.93-2.81-.76-3.59-.76a21.44 21.44 0 0 1 -3.06.19 27.8 27.8 0 0 1 -7-9.25 21.49 21.49 0 0 1 -1.5-15.25c1.41-5.15 6.09-10 9.5-12.56a39.59 39.59 0 0 1 12.5-5.31c.19 0 3.41 3.28 4.19 3.75s1 .78 1 1.37a11.82 11.82 0 0 0 -.19 3 7.12 7.12 0 0 0 .25 1.13 3.31 3.31 0 0 0 -.94 2.31c0 1.5.35 2.31 1.38 2.44a2.62 2.62 0 0 0 2.12-.94 3.29 3.29 0 0 0 .69-1.19s1.56 1.13 1.69 1.88-.82 4.43 0 5.12 3.44 2.75 3.5 3.53a9.73 9.73 0 0 1 -.38 2.35 2.9 2.9 0 0 0 -2.31 1.28 6.66 6.66 0 0 0 -1.28 3.65c0 .91-.28 1.82.53 3s1.19 1.29 1.53 1.47.85.41.85.41a14.89 14.89 0 0 0 -1.66 2.41c-.1.41.4 2.21.21 2.82zm2.53-6.91c-.22.41-.31.81-.56.81a2.93 2.93 0 0 1 -2.34-1.93c-.47-1.54-.57-4.54 1.81-6.07.21-.13.44.28.31.66s-.94 1.28-.59 2.34 1.34 1.91 1.43 2.75.16 1.03-.06 1.44zm-25.53.5a16.12 16.12 0 0 0 1.84 3c.16.09.16 0 .35-.22s-1.31-3-1.56-3.19c0 0-.54.21-.63.41zm-1.25.59a1.08 1.08 0 0 0 -.72.16 27.79 27.79 0 0 0 2.19 3.88c.09.09.28-.16.44-.32a18 18 0 0 0 -1.91-3.72zm-2.84.82a24.18 24.18 0 0 0 2.56 3.81c.25.12.28-.13.34-.28a25.06 25.06 0 0 0 -1.75-3.72c-.15-.13-1.15-.02-1.15.19z" fill="#1d1d1b"/></svg>