<?xml version="1.0" encoding="iso-8859-1"?>
<!-- Uploaded to: SVG Repo, www.svgrepo.com, Generator: SVG Repo Mixer Tools -->
<svg fill="#000000" height="800px" width="800px" version="1.1" id="Layer_1" xmlns="http://www.w3.org/2000/svg" xmlns:xlink="http://www.w3.org/1999/xlink" 
	 viewBox="0 0 512 512" xml:space="preserve">
<g transform="translate(1 1)">
	<g>
		<path d="M511,255c0-60.719-21.438-116.666-57.1-160.678c-3.383-4.752-8.06-9.504-12.02-14.255l-0.853-0.853
			c-8.533-9.387-18.773-17.92-29.013-26.453l-0.853-0.853c-5.12-4.267-10.24-7.68-15.36-11.093l-1.707-0.853
			c-9.387-6.827-21.333-13.653-32.427-18.773l-2.56-0.853c-5.12-2.56-11.093-5.12-17.067-6.827l-3.413-0.853
			c-11.093-4.267-23.04-6.827-35.84-9.387l-3.413-0.853c-5.973-0.853-12.8-1.707-18.773-2.56h-2.56
			c-5.504-0.612-10.127-0.783-14.507-0.832V-1H255h-8.533v0.159C109.577,3.702-1,117.057-1,255s110.577,251.298,247.467,255.841V511
			H255h8.533v-0.144c0.408-0.019,0.814-0.037,1.228-0.062c3.737-0.142,7.456-0.357,11.152-0.66c1.616-0.033,3.232-0.232,4.848-0.434
			c0.847-0.086,1.688-0.19,2.533-0.284c0.809-0.073,1.617-0.123,2.426-0.123c0.997,0,1.995-0.29,2.992-0.533
			C413.731,492.127,511,384.377,511,255z M313.88,450.413l-5.973,37.547c-2.56,0.853-5.12,0.853-7.68,1.707l-4.267,0.853
			c-0.251,0.084-0.516,0.153-0.782,0.222c-10.339,1.743-20.899,2.833-31.644,3.191V459.8v-85.333v-16.213l18.773,15.36
			l17.067,23.893c1.707,1.707,4.267,3.413,6.827,3.413h48.64l-5.973,28.16l-30.72,15.36
			C316.44,445.293,313.88,447.853,313.88,450.413z M246.467,341.187V357.4C193.56,352.28,152.6,308.76,152.6,255
			s40.96-98.133,93.867-102.4v34.69c-33.555,4.235-59.733,33.054-59.733,67.71s26.178,63.475,59.733,67.71V341.187z
			 M246.467,204.653v100.693C222.573,301.08,203.8,280.6,203.8,255C203.8,229.4,222.573,208.92,246.467,204.653z M263.533,139.437
			c2.11-3.173,3.709-6.858,5.973-9.877c0.853-1.707,1.707-2.56,2.56-4.267c2.56,4.267,2.56,9.387,1.707,14.507
			c-0.853,2.56-2.56,9.387-8.533,11.093c-0.41,0-0.825,0.195-1.707,0.21V139.437z M263.533,58.065
			c3.078-0.58,6.035-1.038,8.533-1.038c8.533,0,20.48-5.12,34.133-11.093c6.827-3.413,17.92-7.68,22.187-8.533
			c6.827,5.973,6.827,15.36,5.973,21.333c-1.707,16.213-11.947,30.72-19.627,33.28c-1.707,0.853-3.413,0.853-5.973-1.707
			c-7.68-7.68-17.067-11.093-28.16-10.24c-5.858,0.837-11.712,3.734-17.067,8.071V58.065z M271.28,16.466
			c1.969,0.328,3.938,0.815,5.906,1.307h2.56c5.973,0.853,11.093,1.707,17.067,2.56l3.413,0.853
			c5.973,0.853,11.093,1.707,17.067,3.413c-4.267,1.707-10.24,4.267-17.067,6.827c-10.24,4.267-23.04,9.387-28.16,9.387
			c-1.707,0-3.413,0-5.12,0v-24.59C268.394,16.292,269.839,16.371,271.28,16.466z M246.467,135.844
			C184.703,140.257,135.533,192.162,135.533,255s49.17,114.743,110.933,119.156v68.577c-99.84-4.267-179.2-87.04-179.2-187.733
			s79.36-183.467,179.2-187.733V135.844z M263.533,186.733v-17.922c2.099-0.01,3.611-0.097,5.12-0.852
			c10.24-3.413,17.067-11.947,19.627-23.04c2.56-12.8,0-24.747-7.68-33.28c-4.267-5.12-8.533-5.12-11.947-5.12c0,0-0.853,0-1.707,0
			c4.267-5.12,9.387-8.533,14.507-9.387c5.12,0,8.533,0.853,12.8,5.12c6.827,6.827,15.36,8.533,23.893,5.973
			c17.067-5.12,29.013-28.16,31.573-46.933c1.662-10.805,0.079-19.986-3.946-27.553c1.256,0.517,2.509,1.04,3.755,1.578
			c0.44,0.358,0.81,0.758,1.045,1.228l2.56,0.853c11.093,5.12,21.333,11.093,31.573,17.067l1.707,0.853
			c1.294,0.862,2.587,1.725,3.867,2.587c46.895,32.352,81.694,81.057,96.202,137.758c-0.228,4.331-0.229,9.467-0.229,14.961
			c0,8.533,0,22.187-1.707,29.867c-0.853-0.853-0.853-0.853-1.707-1.707c-6.827-10.24-18.773-23.04-31.573-19.627
			c-14.507,3.413-17.067,23.893-19.627,41.813c-0.853,4.267-1.707,10.24-2.56,11.947c-6.827,10.24-14.507,15.36-25.6,15.36
			c-20.48,0-42.667-17.92-53.76-34.987c-2.56-3.413-3.413-8.533-4.267-12.8c-1.707-6.827-2.56-14.507-10.24-18.773
			c-2.56-0.853-5.12-1.707-8.533-1.707c-5.12,0-11.947,2.56-23.893,7.68c-2.56,0.853-4.267,1.707-5.973,2.56
			c-0.853-5.12-4.267-11.947-13.653-15.36c-5.12-1.707-8.533-0.853-11.093,0c-5.001,2.143-7.01,6.679-8.533,11.104V186.733z
			 M16.067,255c0-128.853,102.4-234.667,230.4-238.933v34.326C137.744,54.908,50.2,145.219,50.2,255s87.544,200.093,196.267,204.608
			v34.326C118.467,489.667,16.067,383.853,16.067,255z M327.775,482.837l4.025-26.45l29.867-15.36
			c1.707-0.853,3.413-3.413,4.267-5.973l8.533-42.667c0.853-2.56,0-5.12-1.707-6.827c-1.707-2.56-4.267-3.413-6.827-3.413h-55.467
			l-15.36-21.333c0-0.853-0.853-0.853-1.707-1.707l-29.867-22.209v-13.631v-75.46c2.105,0.363,4.424,0.314,6.827-0.487
			c7.68-2.56,9.387-9.387,11.093-14.507c0.853-0.853,0.853-0.853,0.853-1.707c0.853,0,0.853,1.707,0.853,3.413
			c0.853,2.56,0.853,8.533,5.973,11.093c5.973,3.413,11.947,0.853,23.893-4.267c8.533-4.267,11.947-4.267,13.653-4.267
			c0.853,1.707,1.707,4.267,1.707,6.827c0.853,5.973,2.56,12.8,6.827,19.627c13.653,20.48,40.107,42.667,67.413,42.667
			c15.36,0,29.867-8.533,39.253-23.893c1.707-3.413,2.56-8.533,4.267-18.773c0.853-7.68,3.413-25.6,6.827-28.16
			c0,0,4.267,0,14.507,13.653c2.56,4.267,10.24,14.507,20.48,11.093c2.414-0.862,4.369-2.256,5.961-4.15
			C493.497,361.924,423.847,452.131,327.775,482.837z"/>
	</g>
</g>
</svg>