<?xml version="1.0" encoding="utf-8"?><!-- Uploaded to: SVG Repo, www.svgrepo.com, Generator: SVG Repo Mixer Tools -->
<svg width="800px" height="800px" viewBox="0 0 64 64" xmlns="http://www.w3.org/2000/svg"><path d="m8.61 6.91a20.12 20.12 0 0 0 .71 3.21c.21.25.54 0 .67-.17a18.52 18.52 0 0 0 -.75-3c-.09-.25-.63-.25-.63-.04zm17.84 22.25c.25.13.62-.37.7-.66s-5.91-7.09-6-7.17-.81.46-.62.5 5.67 7.17 5.92 7.33zm10.55 17.67c.17.12 1.54 4.87 1.83 5s.5-.21.63-.54a28 28 0 0 0 -1.88-4.67c-.13-.29-.69.11-.58.21zm17.75-.33s.87-.92 1.67-1.88a3.24 3.24 0 0 0 .41-3.42c-.5-1.29-8.87-6-8.87-6s5.29-4.62 7.5-9.12 5-11.54.91-16.34-9.63-3.99-16.55-1.33-14.12 8.34-14.12 8.34a21.28 21.28 0 0 0 -2.38-2.34c-.5-.25-1.67.54-1.67.54l-4.41-5s.91-1.79 0-2.75-10.54-4.75-11.46-3.75.92 8.09 1.29 9.71a2.74 2.74 0 0 0 2.13 2.34 6.13 6.13 0 0 0 2.41-1c.13-.09 4.59 5.08 4.59 5.08a2.11 2.11 0 0 0 -.38 1.83 24.69 24.69 0 0 0 1.92 2.71s-5.74 6.33-8.09 10.25-5.58 12.25-1.65 16.38 9.83 4 15.92 2a24.75 24.75 0 0 0 9.37-5.38s2.79 8.5 4.75 9.71 4.5-.25 4.5-.25a26.13 26.13 0 0 0 2.58 3.75c.67.5 2.59-.33 6.13-3.33s6.79-6 6.83-6.84-3.3-3.91-3.3-3.91zm-7.1-13.59a34.06 34.06 0 0 0 -1.75-4.16c-.25-.09-.83.33-.7.45s1.66 4.25 1.66 4.25l-.71.67a41 41 0 0 0 -2-4.42c-.2 0-1 .38-.91.5s2.12 4.42 2 4.59-.79 1-.79 1a23.16 23.16 0 0 0 -3.84-5.79 12.19 12.19 0 0 0 -3.61-2.75 41.74 41.74 0 0 0 2.62-3.55l1.25-2a8.17 8.17 0 0 1 6.38 3.17c2.66 3.38 2.87 5.21 2.87 5.21zm-11.37-4.91a28.53 28.53 0 0 1 4.72 4 14 14 0 0 1 2.7 4.46s-2.13 2.16-3.8 3.54a36.15 36.15 0 0 1 -3.5 2.58 14.82 14.82 0 0 1 -4.79-3.54 11.44 11.44 0 0 1 -2.61-4.34 28.31 28.31 0 0 0 3.79-3.29c2.07-2.08 3.49-3.41 3.49-3.41zm-2.13-2.55-1.54-1.75a45.2 45.2 0 0 1 2.84-4.91c1.29-1.67 2.91-2.5 3.91-2.42a4.56 4.56 0 0 1 2.13 1.13l-4.09 6.16a1.36 1.36 0 0 0 -1.33.09 8.45 8.45 0 0 0 -1.92 1.7zm12.85-17.37a12.08 12.08 0 0 1 2.66-.25c.67.12 4.8.5 6.46 4s-.12 7.67-.12 7.67a15.45 15.45 0 0 0 -3.46-5 7.89 7.89 0 0 0 -5.54-2.38 6.55 6.55 0 0 0 .66-2 3.29 3.29 0 0 0 -.66-2.04zm5.66 8.33a16.5 16.5 0 0 1 2.67 4.71s-.75 1.92-1 2.63a4.29 4.29 0 0 1 -.54 1.16s-1.43-3.62-1.79-3.62-.67.54-.54.62 2 3.42 1.83 3.59a11.1 11.1 0 0 0 -.75 1.2s-1.75-3.37-1.87-3.41-.88.16-.63.46 1.96 3.58 1.78 3.95-.82 1.38-.82 1.38a11.86 11.86 0 0 0 -4.17-6.29c-3.21-2.25-4.75-2.25-4.75-2.25s2-3 3-4.92 1.29-2.54 1.29-2.54 4.12.42 6.28 3.33zm-24.66.79a41.25 41.25 0 0 0 3.42 3.13c.16-.08.33-.5.33-.5s-2.75-3.08-2.64-3.29 1.09-1.13 1.42-1 2.21 3 2.46 3 .58-.46.41-.67a20.06 20.06 0 0 1 -1.79-2.87 8.79 8.79 0 0 1 .84-.55l1.83 2.21s.67-.25.46-.41a9.91 9.91 0 0 1 -1.38-2.25c.13-.09 2-1.38 2.34-1.25s1.29 2 1.41 2 .63-.17.5-.38a14.32 14.32 0 0 1 -1.25-2 6.77 6.77 0 0 1 1.84-1c.25 0 2.12 3 2.37 3s.54-.37.46-.5l-1.92-3.08a9.54 9.54 0 0 1 1.5-.62c.13 0 1.71 2.95 1.88 2.87s.58-.29.46-.54a22.21 22.21 0 0 1 -1.5-2.75 13.44 13.44 0 0 1 3.08-1 1.42 1.42 0 0 1 .92 1.83c-.3.88-3.38 6.25-3.38 6.25s-.62-2-2.33-1.83a5.58 5.58 0 0 0 -4.63 2.54c-1 1.75-2 3.46-2.37 4.12s-.67 1.34-1 1.3a66.54 66.54 0 0 1 -4.74-4.88zm-7.46 1.25c.88-1.12 1.46-2.16 1.83-2.12s11.16 11.08 11.12 11.46a14.29 14.29 0 0 1 -3 3.33c-1.38 1.21-1.92 1.58-2 1.5s-10.38-11.62-10.67-12c-.13-.16 1.88-1.04 2.75-2.17zm5.86 15.17s-1.5 2.21-1.62 2.25a52.14 52.14 0 0 1 -6.13 3.42 18.53 18.53 0 0 1 -5.12 1.46s0-.59.37-.8a46.86 46.86 0 0 0 7.21-4.62c3-2.42 3.54-3.38 3.67-3.33s1.62 1.62 1.62 1.62zm-17.33-20.17c-.17-.37-2.33-8.7-2-8.83s8.67 3.38 8.54 3.83-1.12 1.75-3.25 3.3a8.52 8.52 0 0 1 -3.29 1.7zm8.63 5.3c-.17-.17-4.75-5.09-4.88-5.3s.46-.41 1.46-1.25 1.33-1.29 1.46-1.25 4.41 5.17 4.41 5.34a3.85 3.85 0 0 1 -1 1.37c-.58.59-1.29 1.25-1.45 1.09zm-7.38 20.25c.17-.55 1-2.92 1.08-3s2.09 1.84 2.21 1.8.29-.34.34-.46-2-2.17-1.92-2.42.62-1.21.62-1.21l2.88 2.63s.33-.29.33-.42-2.71-2.92-2.71-2.92a2.71 2.71 0 0 0 .34-.41c.16-.25 1.12-1.5 1.12-1.5s3.59 3.87 3.71 3.87.54-.41.54-.41l-3.71-4.25 1.21-1.42 4.09 4.33s.54-.25.5-.5-4.05-4.37-4-4.5a6.14 6.14 0 0 1 .95-1.21c.17-.09 3 3.16 3.21 3.29s.25 0 .34-.42-2.88-3.5-3-3.54.41-.62.7-.71 4.85 5.38 4.85 5.38a10.36 10.36 0 0 1 -2.54 3c-2 1.7-6.21 4-7.67 5s-1.67 1.83-1.67 1.83a15.34 15.34 0 0 1 -2.12.17c-.3-.13.15-1.46.32-2zm.68 11.87a7.9 7.9 0 0 1 -2.46-8.33c.06-.21 1.63.33 2.54.33s2-.08 2-.08a10.37 10.37 0 0 0 2.25 5.83 31.17 31.17 0 0 0 4.54 3.75c-.17.08-6.05 1.08-8.87-1.5zm13.33 0a16.83 16.83 0 0 1 -3.12 1s-3.88-1.5-5.54-4.5-1.25-4.87-1.25-4.87a11.83 11.83 0 0 0 3.7-1.21c1.88-.92 3.34-1.75 3.34-1.75s-.63 3 2.91 6 4.05 3.08 4.05 3.08a38.93 38.93 0 0 1 -4.06 2.21zm7.67-4.58a14.83 14.83 0 0 1 -2.59 1.83s-4-2.62-5.25-4.37a12 12 0 0 1 -1.62-4.59s1.67-.91 3.17-1.91a18.47 18.47 0 0 0 2.29-1.71 14.52 14.52 0 0 0 3.66 5.33 14.26 14.26 0 0 0 3.75 2.46s-2.3 1.92-3.41 2.96zm7.16 9.21c-.54-.5-4.37-9.3-4.29-9.38a65.48 65.48 0 0 0 5.84-4.46c2.66-2.33 6.08-5.25 6.08-5.25l6.61 4.59-5.87-.8s-.42.84-.17.88 7.21 1.21 7.29 1.42a2.31 2.31 0 0 1 -.08 1.25c-.12 0-7-1.46-7.17-1.34a.76.76 0 0 0 -.12.71c.08.17 6.67 1.38 6.58 1.58a5.42 5.42 0 0 1 -.58.8s-5.08-1-5.33-.88-.42.71-.21.83 4.75.88 4.66 1-.7.75-.7.75a40.09 40.09 0 0 0 -4.25-.7c-.17.12-.38.75-.25.83s3.87.58 3.66.79l-1 1a21.36 21.36 0 0 0 -2.86-.58c-.25.08-.42 1-.25 1.08s2.08.5 2.08.5-3.5 3-5.33 4.25-3.8 1.63-4.35 1.13zm15.38-3.67s-1.25-1.75-1.42-1.71-.79.33-.62.46a8.47 8.47 0 0 1 1.25 1.87c-.09.13-.71.8-.71.8a17 17 0 0 0 -1.54-1.92c-.13 0-.63.46-.5.58s1.5 1.67 1.37 1.88-2.37 2.12-3.5 3-2.12 1.87-2.41 1.75a14.55 14.55 0 0 1 -2.05-3 64.19 64.19 0 0 0 5.17-4c3-2.75 4-3.67 4.13-3.63s2.37 2.3 2.25 2.55a13.36 13.36 0 0 1 -1.43 1.37z" fill="#1d1d1b"/></svg>