<?xml version="1.0" encoding="utf-8"?><!-- Uploaded to: SVG Repo, www.svgrepo.com, Generator: SVG Repo Mixer Tools -->
<svg width="800px" height="800px" viewBox="0 0 64 64" xmlns="http://www.w3.org/2000/svg"><path d="m22.59 12.12a7.57 7.57 0 0 0 -1.91 2.5 10.51 10.51 0 0 0 -.75 2.88c0 .12.58.12.79.08s0-.46.5-2.25a6.26 6.26 0 0 1 1.87-2.83c.13-.21-.26-.5-.5-.38zm8.09-1.79c-7.21 1.88-7.63 7.75-4.63 11.92s11.95 1.75 12.63-4.46a6.64 6.64 0 0 0 -8-7.46zm6.16 7.32c-.5 4.65-7.16 6.41-9.39 3.32s-1.92-7.47 3.44-8.86a4.94 4.94 0 0 1 5.95 5.54zm-5.63-2.93c-2.65.69-2.8 2.84-1.7 4.36s4.38.66 4.63-1.63a2.43 2.43 0 0 0 -2.93-2.73zm4.92 12.07a7.6 7.6 0 0 1 -5.25 2.21 5.79 5.79 0 0 1 -5.16-2.46c-.34 0-1 .83-1 1s1.92 2.83 6 3.08 6.21-2.08 6.29-2.5-.54-1.37-.88-1.33zm14.42-21.13a2.56 2.56 0 0 0 -2 3.05l-5.54 3.7a14.47 14.47 0 0 0 -2.01-2.41 18.45 18.45 0 0 0 -11.16-3 14.38 14.38 0 0 0 -9.33 4l-5.13-2.29s.5-1.42-.5-2.13a3.92 3.92 0 0 0 -4.54.33 2.9 2.9 0 0 0 .75 4.71 2.29 2.29 0 0 0 2.75-.46l4.54 2.5a9 9 0 0 0 -1.08 2.09 19 19 0 0 0 -.87 3.71s-.8-.13-2.42 1.41-1.42 3.88-.33 4.79 3.75.84 3.75.84.08 2.5 3.45 5.79 9.71 3 9.71 3v2.83s-.33.08-.62.17a4.88 4.88 0 0 0 -2.5 2c-1.05 1.45-2 6.54-2 6.54a2.9 2.9 0 0 0 -1.5 1c-.54.79-.71 2.71.54 3.5a2.21 2.21 0 0 0 3.33-1.63 2.43 2.43 0 0 0 -1.33-2.37s0-.42.21-1.63a14.82 14.82 0 0 1 2.16-5.58c1.09-1.33 1.59-.79 1.59-.79s-1.63 8.38-1.67 11.17a4.43 4.43 0 0 0 1.88 3.91v1.25s-.25-.16-1.55.13a1.49 1.49 0 0 0 -.75 2.42c.59.58 2.55.2 3.05-.09s0-3.5 0-3.5l1 .17s.17 2.67.17 2.83.2.54 1.37.75 2.83-.75 2.38-2-2.84-.91-2.84-.91l-.08-1a5.68 5.68 0 0 0 1.75-3.25c.25-2-1.67-11-1.63-11.17s.38-.25.84.13a34.75 34.75 0 0 1 2.41 4.12 2.36 2.36 0 0 0 1.71.71c.59-.08 3.88-3.29 3.88-3.29s2.7.29 3.41-1.71-.87-4-3.37-2.79-.67 3.87-.67 3.87a3.17 3.17 0 0 1 -.88.92c-.62.46-2.16 1.83-2.58 1.83s-1.46-1.83-2.3-3.33a4.35 4.35 0 0 0 -2.58-2l-.34-3.63a19.35 19.35 0 0 0 7.71-2.83 9.44 9.44 0 0 0 4.46-6.29s4-.54 4.12-4-3.58-3.29-3.58-3.29 0-.63-.12-1.21a9.67 9.67 0 0 0 -.75-1.88l5.34-4.37a3.52 3.52 0 0 0 1 .41 3 3 0 1 0 -.75-5.75zm-39 5a1.91 1.91 0 0 1 .29-3.46 1.71 1.71 0 0 1 2.38 1.3 1.9 1.9 0 0 1 -2.63 2.12zm5.13 14.54c-.21 0-1.71.17-2-1.2a2.44 2.44 0 0 1 1.54-3c.22-.07.12 1.42.33 2.46s.38 1.7.17 1.7zm10.16 24.3a1.26 1.26 0 0 1 -1.71 1c-.62-.38-.87-2.13.34-2.38.7-.12 1.37.63 1.37 1.38zm16.71-11.5a1.46 1.46 0 0 1 1.45 1.29c0 .75-1.5 1.5-2 1.25s-.7-2.29.55-2.54zm2.54-16.13a8.88 8.88 0 0 1 0-1.91 1.55 1.55 0 0 1 1.92 1.37c.29 1.63-2.25 2.92-2.37 2.75s.41-1.42.45-2.21zm-31-11.08c-.08-.17.34-1 .34-1 .2 0 4.12 1.75 3.95 2.08s-.5.88-.62.8-3.58-1.67-3.67-1.88zm18.46 41c-.42.83-2.58 1.42-3 0s1-14.79 1.45-14.79c.14-.06 2 14 1.55 14.79zm10.25-28.25a8.83 8.83 0 0 1 -.62 2.08 14.89 14.89 0 0 0 -1.63-2.21c-.21 0-.75.38-.54.59a13.41 13.41 0 0 1 1.83 2.75c-.08.25-.79 1.41-.79 1.41a22.52 22.52 0 0 0 -1.83-2.66c-.17 0-.71.41-.63.54a20 20 0 0 1 1.88 3.12c-.13.21-1 1.09-1.09.92a20.22 20.22 0 0 0 -1.38-2.33c-.13 0-.59.21-.5.41s1.54 2.46 1.37 2.67a7 7 0 0 1 -1 .75s-.83-2-1-2-.92.38-.83.5 1.08 1.79.91 2a2.77 2.77 0 0 1 -.58.38l-1.15-1.46-.59.37s.92 1.42.75 1.46l-.83.25s-.5-1.12-.67-1.17-.83 0-.7.13a9.58 9.58 0 0 1 .54 1.21 19.33 19.33 0 0 1 -7.79 0 10.78 10.78 0 0 1 -8.34-8.8 15.83 15.83 0 0 1 1.84-11.33c1.45-2.33 4-3.33 6.58-4.25 3-1.08 8.5-.67 12.87 2.25s4.05 11.46 3.92 12.42zm5.38-12.88c-.21.21-4.46 3.84-4.59 3.63s-.59-1.29-.59-1.29c.17-.08 4.42-3.46 4.67-3.21s.71.67.51.87zm1.54-.66a1.9 1.9 0 0 1 .28-3.42 1.7 1.7 0 0 1 2.37 1.29 1.89 1.89 0 0 1 -2.65 2.13z" fill="#1d1d1b"/></svg>