<?xml version="1.0" encoding="utf-8"?><!-- Uploaded to: SVG Repo, www.svgrepo.com, Generator: SVG Repo Mixer Tools -->
<svg width="800px" height="800px" viewBox="0 0 64 64" xmlns="http://www.w3.org/2000/svg"><path d="m18.51 11.07a3.13 3.13 0 0 1 2.08-.16c.21 0 .21-.67.21-.84s-.92-.2-2 0a2.87 2.87 0 0 0 -1.83.84 1.52 1.52 0 0 0 .12 1c.09.21.63-.34 1.42-.84zm-1.46 7.3c.17-1.92-.55-3.1-2.29-2.8-1.92.34-3.42 2.59-2.21 4.09s4.33.62 4.5-1.29zm-2.34-2.05c1.2-.21 1.69.6 1.58 1.92a1.87 1.87 0 0 1 -3.1.89c-.83-1.03.2-2.58 1.52-2.81zm.34 15.05c.08-5.05-4.39-5-5.5-3.59a5.11 5.11 0 0 0 -1.08 5.5c.91 2.21 6.53 3.13 6.58-1.91zm-5.66 1.24a3.6 3.6 0 0 1 .76-3.86c.78-1 3.92-1 3.86 2.51s-4.01 2.89-4.62 1.35zm8.66 11c-.25-4.83-4.91-5.15-6.42-3.37-1.12 1.33-1.91 2.92-.5 5.87s7.17 2.3 6.92-2.54zm-6.14 1.87c-1.06-2.22-.47-3.4.37-4.4 1.13-1.33 4.62-1.09 4.81 2.52s-4.09 4.05-5.18 1.84zm7.09 7.14c-.29-.09-1 .79-2.42.25a4.85 4.85 0 0 1 -2.25-2s-.71.29-.79.58.54.88 2.33 2.13a2.7 2.7 0 0 0 3.42-.09c.22-.12.01-.79-.29-.87zm11.47-20.62c-2.67.38-4.34 3.08-4.79 6.5s-.09 9.5.87 9.5 1-1.62 4.25-1.79 4.58 2.13 5.5 1.92 2.5-8.34 1.08-12.46-4.72-3.99-6.91-3.67zm6.08 8s-.83-1.54-1.08-1.46-.5.29-.34.5 1.42 1.54 1.42 2a6.92 6.92 0 0 1 -.12 1 17.62 17.62 0 0 0 -2-2.41.74.74 0 0 0 -.42.79c.08.33 2.37 2.87 2.37 3.21s-.12 1.16-.12 1.16-2.42-3.21-2.71-3.08-.58.54-.42.79a35.91 35.91 0 0 1 2.63 3.75.66.66 0 0 1 -.21.42l-.5-.25s-2.25-3.5-2.54-3.5-.71.21-.63.5 1.34 2.12 1.34 2.12l-1.22-.3c-.21 0-.46-1-.67-1.08s-.87.12-.75.33a2 2 0 0 1 .17.67 3.78 3.78 0 0 0 -2.13.29c-1 .5-1.54 1-1.71.75a40.45 40.45 0 0 1 .05-8.46c.38-2.54 2.04-4.83 5.04-4.74 2.71 0 3.66 1.54 4.16 3.54a13.08 13.08 0 0 1 .39 3.46zm-5.12-6a2.93 2.93 0 0 0 -2.8 1.42 12.41 12.41 0 0 0 -.33 4.25c.13.2.92 0 1.17 0s0-2.13.37-3.55 2.17-1.2 2.21-1.45a.67.67 0 0 0 -.62-.67zm26.83-15.38c-2.71-5.42-9.26-10.88-14.44-11.75s-6 .5-6.1 1.08 1.08 2.62 3.28 6.67 3 9.48 2.77 14.83-2.94 6.62-2.94 6.62-1-7.28-8.37-7.18-9.63 7.65-9.63 7.65a18 18 0 0 1 -2.34-3.06c-1-1.66-1.91-4.44-1.25-9.22s4.25-9.47 5.37-12.78-.76-5.65-3.28-5.34c-5.62.68-9 5.43-11 8.23s-5.78 9.54-6.45 15.63a32.26 32.26 0 0 0 2.42 16.57c2.17 4.92 6.42 10.25 11.75 10.88s8.33-4 8.33-4a9.89 9.89 0 0 0 4.84 1.25 14.29 14.29 0 0 0 5.78-.83 19.23 19.23 0 0 0 4.33 3.54c1.83.83 6 .91 9.67-2.46s7.66-10.63 8.62-16.38 1.38-14.57-1.36-19.95zm-40.08 37c-3.84-.12-8-4-10.55-10.91s-2.75-13.14-1.41-18.22a40.29 40.29 0 0 1 8-14.5c2.78-2.92 5.41-4.08 7.41-3.92s1.63 2.71.3 5.17-3.88 5.92-4.59 10.88a15.49 15.49 0 0 0 2 10.83 14.33 14.33 0 0 0 3.05 3.54 28.07 28.07 0 0 0 -.21 7.33 18.61 18.61 0 0 0 2.41 6.59s-2.59 3.29-6.41 3.16zm13-2.87c-3.71-.08-5.46-1.46-6.5-4.38s-.71-11 .54-13.62 3.79-3.88 6.71-4c2.71-.16 5.87.79 6.83 4.5s.67 10.16-.58 13.46-3.25 4.07-6.96 3.99zm24-7.33c-3 5.33-5.17 8-6.38 9s-1.8 1.2-1.8.99-1-4.13-1.34-4.25-.83 0-.75.12 1.35 4.34 1.09 4.42-.83.46-1 .21-1.25-4.46-1.46-4.5-1 0-.83.33 1.5 4.08 1.25 4.13a4.35 4.35 0 0 1 -1.13-.3s-1.08-3.5-1.33-3.5-.79 0-.71.34a15.81 15.81 0 0 1 .63 2.66c-.17 0-1.5-1-2.13-1.45s-1.41-1-1.25-1.25a13.06 13.06 0 0 0 3-7.88c.38-5.12.38-6.29.38-6.29s3.2-1.38 3.66-6.38.84-9.87-.75-14.2-4.7-8.75-4.53-9.13 5.46-1 11 3.5a19.89 19.89 0 0 1 7.71 15.67c0 5.34-.29 12.34-3.29 17.71zm-8-33.75c-.08-.46-3.45-1.74-4.13-1.63-.25 0 .34 1 1.13 1.17s2.42 1.08 2.79 1.12.37-.26.29-.71zm1.42 6a3.24 3.24 0 0 0 -.59 4.58c1.42 1.83 4.79 1.46 4.67-1.63s-2.86-3.77-4-3zm.06 4a2.18 2.18 0 0 1 .39-3.08 2 2 0 0 1 2.75 2 1.71 1.71 0 0 1 -3.06.99zm-.23 7.33a3.06 3.06 0 0 0 0 4.75c2 1.92 5.42 1.67 5.67-1.79s-4.24-4.24-5.67-2.96zm4.57 2.9c-.17 2.34-2.51 2.51-3.84 1.21a2.07 2.07 0 0 1 0-3.22c.96-.89 3.97-.34 3.84 2.01zm-7.32 9.1c-3.13 1.17-3.3 4.42-1.75 6.46a3.74 3.74 0 0 0 6.54-2.09c.46-3.92-2.78-5.17-4.79-4.37zm3.76 4.2a2.71 2.71 0 0 1 -4.73 1.51 2.91 2.91 0 0 1 1.29-4.71c1.43-.55 3.77.35 3.44 3.15zm1.56-7.42a24.65 24.65 0 0 0 1 3.84c.16.16.87 0 1-.3s-1.07-3.32-1.2-3.62-.8-.22-.8.08zm2.29-.54a13.06 13.06 0 0 0 .92 3.46c.16.17.54.12.87-.33s-.71-3.3-.83-3.42-.82.12-.99.29zm3 .46c.17-.13-.21-1.38-.37-1.54s-.6 0-.71.25a9.41 9.41 0 0 0 .3 1.59c.08.2.62-.18.79-.3zm-9.71 13a16.14 16.14 0 0 0 1.09 3.41c.12.17.45-.12.7-.33s-.83-3.12-.87-3.25-.79-.11-.91.13zm2-.5a9.41 9.41 0 0 0 .5 2.29c.13.21.59-.25.67-.38a7.42 7.42 0 0 0 -.42-2c-.11-.24-.69-.11-.74.05z" fill="#1d1d1b"/></svg>