<?xml version="1.0" encoding="utf-8"?><!-- Uploaded to: SVG Repo, www.svgrepo.com, Generator: SVG Repo Mixer Tools -->
<svg width="800px" height="800px" viewBox="0 0 64 64" xmlns="http://www.w3.org/2000/svg"><path d="m53.19 18.47c0-.37-1.63 0-1.63 0s0-2.54-.08-3-3.38-.17-3.67-.08-.08.7-.12 1-5.59-10.17-5.75-10.34-.84 0-.84 0a16.34 16.34 0 0 0 -.2-2.08c-.13-.33-3.17-.21-3.59-.17s.13 2.42.13 2.42a3.92 3.92 0 0 0 -.71 0c-.25 0 0 6.92-.08 7s-.46 0-.63-.08 0-.29-.17-.5-7.33 0-7.54 0-.33.83-.33.83a2.15 2.15 0 0 1 -.75-.21c-.29-.17.21-6.83.12-7.17s-.62 0-.62 0 0-1.91-.08-2.37-4.3-.33-4.71-.25-.21 2.67-.21 2.67a3.07 3.07 0 0 0 -1 .29c-.33.17-4.73 12.17-4.73 12.17a5 5 0 0 1 -.75-.05c-.21 0 0-2.29 0-2.62s-3 0-3.29 0 0 2.58 0 2.58a2.92 2.92 0 0 0 -1.17 0c-.46.17-.71 20.13-.38 24.75s2.46 8.42 6.13 11.88 9.83 4.08 9.83 4.08a2.57 2.57 0 0 0 1 1.25 52.24 52.24 0 0 0 9.5-.08 2.86 2.86 0 0 0 1.61-1.39s2.71-.16 8-3.12 6.75-9.84 7.17-12.42-.42-24.61-.46-24.99zm-4.38-2.25c0-.13 1.84-.17 1.88.13s.08 1.79-.09 1.83-1.83 0-1.83 0 .08-1.75.04-1.96zm-10.41-11.42a5 5 0 0 1 1.62 0c0 .12.17 1.2 0 1.2s-1.75-.2-1.75-.2-.08-.95.13-1zm.2 9.09c0-.42-.08-6.21-.08-6.21h2.33l5.67 10.83a21.37 21.37 0 0 0 -2.21-1.62c-.12 0-.5.41-.29.54a13 13 0 0 1 2 1.75c0 .16 0 1.37-.25 1.54s-2.5-2.25-2.63-2.21-.33.54-.33.54a25 25 0 0 1 2.67 2.54 8.13 8.13 0 0 1 -.48 1.3 33.54 33.54 0 0 0 -3.08-2.67c-.17.08-.46.46-.38.63s3 2.58 2.88 2.87a3.34 3.34 0 0 1 -.67.75 35.18 35.18 0 0 0 -3-3.08c-.21 0-.75.58-.46.71a18.67 18.67 0 0 1 3 2.95l-.62.46s-2.8-3-3-3-.5.67-.33.75 1.66 1.79 1.66 1.79a9 9 0 0 0 -1.71-.62c-.46 0-.75 0-.75 0l-1.94-9.58s1.96-.55 2-.96zm6.63 17.37a22.39 22.39 0 0 1 .83 7.59 13.84 13.84 0 0 0 -3-1.75 25.51 25.51 0 0 1 -2.46-1.05l-1.54-9.75c.21-.04 5 1.09 6.17 4.96zm-15.79-17.12c.23-.36 4.91-.21 5.12 0s1.09 5.37 1.09 5.37-1-1-1.13-.87-.29.58-.17.66a9.54 9.54 0 0 1 1.55 1.3c0 .2.2 1.08.2 1.08a9 9 0 0 0 -1.37-1.08c-.13 0-.29.75-.13.91a19.28 19.28 0 0 1 1.63 1.63c.08.21.58 2.12.58 2.12s-2-2.46-2.25-2.37-.37.83-.25 1 2.59 2.5 2.63 2.67.33 1.66.33 1.66-2.92-3.37-3.12-3.22a.9.9 0 0 0 -.21.92c.08.37 3.46 3.71 3.62 4.08s.59 2.83.59 2.83-4.15-5.4-4.38-5.19a1.42 1.42 0 0 0 -.17 1.12c.09.13 4.59 5.42 4.67 5.67a5.83 5.83 0 0 1 .13.87l-1.13-.3s-4.37-5.25-4.54-5.16-.29.66-.21.83 3.58 4.08 3.33 4.08a4.87 4.87 0 0 1 -.87-.08c-.13 0-2.58-2.54-2.71-2.54a.86.86 0 0 0 -.27.87 18.45 18.45 0 0 0 1.5 1.58 20.54 20.54 0 0 0 -3.83.05 25.29 25.29 0 0 0 -3.63.45s3.06-20.44 3.4-20.94zm-6.67-9.84c.29 0 3-.2 2.92.09s.29 1.41 0 1.5-2.75 0-3 0-.21-1.54.08-1.59zm-6.33 16.63s5.41-13.29 5.66-13.38a23.39 23.39 0 0 1 3.42-.12c-.08.17-.17 7.17.13 7.29s1.91.5 1.91.5l-1.29 7.08s-1-1.45-1.17-1.41-.54.29-.41.37 1.31 1.79 1.31 1.79v1.13l-1.09.33a25.14 25.14 0 0 0 -2.12-2.87c-.21 0-.79.25-.63.46s1.84 2.66 1.84 2.66l-1 .59a19.52 19.52 0 0 0 -2.33-2.67c-.25 0-.58.25-.46.46s2.21 2.37 2 2.5-.58.54-.58.54a22.91 22.91 0 0 0 -2.46-2.58c-.17.08-.37.83-.37.83l2.25 2.25-.55.46a5.23 5.23 0 0 1 -3.54-3.59c-.65-2.87-.52-2.62-.52-2.62zm8 14.17a20.65 20.65 0 0 0 -3.13.75c-1.46.5-3 1-3 1s.17-4.3 1.79-6.5 4.42-3.21 5.13-3.55c.26-.14-.79 8.3-.79 8.3zm-11.67-18.21c.29 0 1.46-.29 1.5 0s.13 1.54-.08 1.58a11.78 11.78 0 0 1 -1.29 0s-.42-1.62-.13-1.58zm-.46 3.11a14 14 0 0 1 2.69-.07s.13 4.21.92 5.5a24.46 24.46 0 0 0 3 3.37 12.53 12.53 0 0 0 -2 4.63 15.59 15.59 0 0 0 -.08 3.75s-1.5.67-3 1.46a22.54 22.54 0 0 0 -2.21 1.25s.37-19.59.68-19.89zm13 37a15.19 15.19 0 0 1 -6.83-3 16.33 16.33 0 0 1 -4-4.79 41.09 41.09 0 0 1 4-2.92 38 38 0 0 0 3.29 3.55 10.65 10.65 0 0 0 3.88 2s-.05 5.16-.3 5.21zm11.55 1.3c-.3.08-8.71.33-9.09-.13s-.12-13.42 0-13.58c.43-.43 8.84-.09 9.13.25s.29 13.42 0 13.51zm-1.34-15.37c-1.42 0-7.29 0-8 .12s-1.5 1-1.58 3a26.71 26.71 0 0 1 -.25 4 10.12 10.12 0 0 1 -5.46-4.91s5.25-5.8 12.41-5.5 12.13 5.66 12.13 5.66-1.46 1.42-2.83 2.79a10.68 10.68 0 0 1 -2.71 2s.12-4.2-.38-5.58-1.91-1.58-3.33-1.58zm9.48 11.92a22.89 22.89 0 0 1 -5.67 2.54 35.17 35.17 0 0 1 -.29-5.79 14.64 14.64 0 0 0 4-2.42c2.13-1.75 2.92-2.67 3-2.71s3.54 2.79 3.58 3.21-1.93 3.58-4.62 5.17zm5.63-6.92s-8.53-6.93-12.28-8.75a15.79 15.79 0 0 0 -13.54.54c-3.87 2.28-11.29 7.79-11.29 7.79a12.11 12.11 0 0 1 -1.52-6.29c0-.13 10.71-5.54 20.71-4.92s18.89 7.63 18.89 7.63zm1.29-6a13 13 0 0 0 -2.59-1.58 11.4 11.4 0 0 1 -1.5-.67s.46-4.75-.45-7.79-1.3-3.5-2.21-4.38a9.15 9.15 0 0 0 -1.21-1 10.6 10.6 0 0 0 2.71-3.21 15.1 15.1 0 0 0 1-3.12c.2 0 3.66 0 3.75.21s.58 16.61.64 18.61a12 12 0 0 1 -.12 2.93zm-31.4-7.67c.08.13.5 0 .71 0s0-.7.29-1.79 1.08-1.37 1.21-1.71-.31-.78-.54-.66a4.7 4.7 0 0 0 -1.54 2.16 4.88 4.88 0 0 0 -.13 2zm-5.75 6.38a2.51 2.51 0 0 0 -.92 3 1.94 1.94 0 0 0 3.55-.54 1.92 1.92 0 0 0 -2.63-2.46zm1.77 2.18a1 1 0 0 1 -1.87.28 1.31 1.31 0 0 1 .49-1.58 1 1 0 0 1 1.38 1.3zm31 2.28a1.51 1.51 0 0 0 2.32-1.63 2 2 0 0 0 -2.16-1.19 1.53 1.53 0 0 0 -.15 2.82zm.46-2.1a1 1 0 0 1 1.14.63.83.83 0 1 1 -1.14-.63zm-24.44 3.55c-.5-.62-.91-1.8-1-1.83a1.54 1.54 0 0 0 -1 .5c-.17.29.46 1.17 1 1.83a4.68 4.68 0 0 0 2.21 1.3.79.79 0 0 0 .12-.75c-.16-.21-.83-.42-1.33-1.05zm-5 2.5a7.48 7.48 0 0 0 -1.71 1.71c-.12.29.34.5.55.46a6.26 6.26 0 0 0 1.54-1.58c.06-.25-.19-.59-.38-.59zm1.44 1.88a18.6 18.6 0 0 0 -1.42 2c-.12.21.38.33.5.42a9.29 9.29 0 0 0 1.59-1.88c.1-.21-.5-.62-.67-.54zm1.5 4a10.41 10.41 0 0 0 1.23-1.93c.17-.33-.56-.68-.71-.46s-1 1.92-1 2.13.38.18.5.22zm9.08-8.42a2.83 2.83 0 0 0 1.13 5c2.08.38 4.21-1.21 3.33-3.67a2.91 2.91 0 0 0 -4.44-1.37zm1.42 3.81a1.64 1.64 0 0 1 -.66-2.91 1.69 1.69 0 0 1 2.6.78 1.61 1.61 0 0 1 -1.94 2.13zm-.89 3.59a2 2 0 0 0 .81 3.56 2 2 0 0 0 2.37-2.61 2.07 2.07 0 0 0 -3.18-.95zm1 2.75a1.17 1.17 0 0 1 -.47-2.08 1.21 1.21 0 0 1 1.86.55 1.16 1.16 0 0 1 -1.39 1.53zm8.66-4.36a.5.5 0 0 0 -.62.3 12.69 12.69 0 0 0 1 2.5 1.29 1.29 0 0 0 1-.42c.25-.33-1.15-2.25-1.38-2.38zm2.29-1.12c-.16 0-.53.16-.5.33s1.13 2 1.13 2a4.62 4.62 0 0 0 .75-.54c.25-.21-1.21-1.79-1.38-1.79zm2.34-2c-.13-.09-.59.21-.59.41s1.34 2.46 1.63 2.38.41-.21.58-.54-1.5-2.21-1.62-2.29zm-23.46-36.43a24.21 24.21 0 0 0 1.34-3.15c0-.16-.49-.34-.62-.25a26.19 26.19 0 0 0 -1.66 3.28c0 .12.78.22.94.12z" fill="#1d1d1b"/></svg>