<?xml version="1.0" encoding="utf-8"?><!-- Uploaded to: SVG Repo, www.svgrepo.com, Generator: SVG Repo Mixer Tools -->
<svg width="800px" height="800px" viewBox="0 0 64 64" xmlns="http://www.w3.org/2000/svg"><path d="m35.25 21.65a1.34 1.34 0 0 0 -.87 2.25c.59.69 2.09.94 2.31-.56s-.81-1.76-1.44-1.69zm-.25 1.88c-.37-.19-.18-.94.25-1a.55.55 0 0 1 .6.59.58.58 0 0 1 -.85.41zm4.85-10.53a8.94 8.94 0 0 0 -2.63.62c-.09.1.16.88.34.91s.6-.31 2-.66a5.82 5.82 0 0 1 2.78.1 4.21 4.21 0 0 0 0-.91c-.12-.16-.99-.19-2.49-.06zm4.62 17.53a1 1 0 0 0 -1 1.44 1.16 1.16 0 0 0 1.84.15c.54-.56.03-1.54-.84-1.59zm-5.37-4.25c-1.32.31-1 1.72-.25 2.34a1 1 0 0 0 1.68-1 1.39 1.39 0 0 0 -1.43-1.34zm.65 1.56a.41.41 0 0 1 -.62-.06c-.19-.19-.22-.72.18-.66.2.03.6.53.44.72zm-10.15-5.84c-.1-.16-.88 0-.94.12a4 4 0 0 0 0 1.72 8.06 8.06 0 0 0 1 2.1c.09.12.87-.28 1-.53s-.22-.41-.66-1.35a4.89 4.89 0 0 1 -.4-2.06zm2.59-6.19c-1 .28-1.78 1.85-1 2.6a1.5 1.5 0 0 0 2.59-.79c.22-1.47-.66-2.05-1.59-1.78zm.58 1.6a.46.46 0 0 1 -.8.24c-.22-.23 0-.71.32-.79s.56.14.48.58zm20.79 4.87c0-4.69-1.31-7.19-6.34-10.75s-12.41-1-12.41-1a1.51 1.51 0 0 0 -.81-.53 8.68 8.68 0 0 0 -3.65 1.5 9.73 9.73 0 0 0 -2.82 3.28 4.82 4.82 0 0 0 .13 1.91 10.5 10.5 0 0 0 -1.44 3.68 15.38 15.38 0 0 0 -.09 4.91s-1.66 1.59-2.85 2.81-6.43 6.44-6.56 6.72.41 1 .41 1-6.6 7.28-6.72 7.44.56.59.84.62 7.38-6.78 7.38-6.78.34.25.5.22 9-8.56 9-8.56a6.41 6.41 0 0 0 .59.9 16.76 16.76 0 0 0 1.41 1.54 31.7 31.7 0 0 1 -2.38 2.81c-1.56 1.66-5.5 6.66-5.59 6.84s.59 1 .62 1.1-8.31 10.72-8.37 10.87.44.69.65.72 9.94-10.09 9.94-10.09a.71.71 0 0 0 .47.15c.25 0 8.88-9.47 8.88-9.47a9.17 9.17 0 0 0 2.21 1.22 16.54 16.54 0 0 0 3.57.56s-5 9.25-5.16 9.75a1 1 0 0 0 .16 1c.06.1-3.94 6.91-4 7.16s.15.53.56.56 5.19-6.4 5.47-6.62 5.78-11.6 5.93-11.94 1-.06 1-.06.88.31 1 .37.57.19 1.57-.19a9 9 0 0 0 3.25-2.46 6.23 6.23 0 0 0 .4-2.54s3.25-3.93 3.25-8.62zm-26.09 5.59c-.12.07-8.31 8.41-8.5 8.35s-1.31-1-1.19-1.22 8.6-8.5 8.85-8.56.97 1.37.84 1.43zm-8.34 20.53c-.13 0 4.15-5.65 4.22-5.71l.46.43s-4.56 5.32-4.68 5.28zm16.93-.81c-.09.06-1.43 1.78-1.53 1.78a22.47 22.47 0 0 1 1.16-2c.22.07.47.16.37.22zm.72-1.19c-.18 0-.78-.21-.78-.34s5.22-10 5.25-10.09.69 0 .69 0-4.94 10.43-5.16 10.43zm1.47-12.21a6.47 6.47 0 0 1 -3.06-.88s1.16-1.09 1.06-1.19-.9-.78-.9-.78-10.1 11.1-10.25 11-1.85-1.28-1.75-1.44 10.06-11.9 10-12.09-.56-.72-.65-.62-1.25 1.53-1.25 1.53a14.59 14.59 0 0 1 -3-4.53c-.91-2.44-.28-6.57.25-6.75a26.36 26.36 0 0 0 6.75 9.65c5.06 4.72 6.65 6 6.56 6.1a13.82 13.82 0 0 1 -3.76 0zm9-.88a3.79 3.79 0 0 1 -2.31.88 58.29 58.29 0 0 1 -7.94-6.47 27.81 27.81 0 0 1 -7.69-12.6 6.15 6.15 0 0 1 2-2.06 8.82 8.82 0 0 1 2-1 16.08 16.08 0 0 0 3.16 8.81c3.19 4.32 6.78 8 8.63 8.69s4.18 1 4.09 1.16a9.3 9.3 0 0 1 -1.97 2.59zm2.22-4.87c-.09 0-2.66-4.13-2.84-4.19s-.72.25-.66.44 3 3.93 2.81 4.09a1.67 1.67 0 0 1 -.78.22s-2.65-4-2.84-4-.94.56-.75.72 2.56 3 2.28 3a24.77 24.77 0 0 1 -6.66-5.94c-2.53-3.31-5-8.56-4.65-10.69a12.34 12.34 0 0 1 10 .47c5.18 2.5 6.28 8.81 6.28 8.81s-1.22-1.5-1.44-1.44-.44.41-.34.5a20.69 20.69 0 0 1 1.75 2c.06.25 0 1 .06 1.41a4 4 0 0 1 -.06.88 32.08 32.08 0 0 0 -2.63-3c-.22 0-.59.46-.44.59a29 29 0 0 1 2.85 3.16 5.3 5.3 0 0 1 -.69 1.53c-.12 0-2.69-3.82-2.84-3.88s-.72.38-.66.5 3 3.85 3 4.13-.69.65-.78.69z" fill="#1d1d1b"/></svg>