<?xml version="1.0" ?>
<!DOCTYPE svg  PUBLIC '-//W3C//DTD SVG 1.1//EN'  'http://www.w3.org/Graphics/SVG/1.1/DTD/svg11.dtd'>
<!-- Uploaded to: SVG Repo, www.svgrepo.com, Generator: SVG Repo Mixer Tools -->
<svg fill="#000000" width="800px" height="800px" viewBox="0 0 100 100" version="1.1" xml:space="preserve" xmlns="http://www.w3.org/2000/svg" xmlns:xlink="http://www.w3.org/1999/xlink">
<g id="_x31_">
<path d="M50,18.6c-17.3,0-31.4,14.1-31.4,31.4S32.7,81.4,50,81.4S81.4,67.3,81.4,50S67.3,18.6,50,18.6z M50,21.6   c15.7,0,28.4,12.7,28.4,28.4c0,2.4-0.3,4.7-0.9,6.9c-4.2,2.5-8.7-0.3-8.9-0.4c-0.5-0.3-1-0.3-1.5-0.1c-0.5,0.3-0.8,0.8-0.8,1.3v5.1   c0,1.2-1,2.2-2.3,2.2s-2.3-1-2.3-2.2V49.6c0-0.1,0-0.2,0-0.3c-0.4-6.1-5.5-11-11.7-11s-11.3,4.9-11.7,11c0,0.1,0,0.2,0,0.3v13.3   c0,1.2-1,2.2-2.3,2.2s-2.3-1-2.3-2.2v-5.1c0-0.5-0.3-1.1-0.8-1.3c-0.5-0.3-1.1-0.2-1.5,0.1c0,0-4.6,2.9-8.8,0.5   c-0.6-2.2-0.9-4.6-0.9-6.9C21.6,34.3,34.3,21.6,50,21.6z M50,41.3c4.8,0,8.8,3.9,8.8,8.8s-3.9,8.8-8.8,8.8s-8.8-3.9-8.8-8.8   S45.2,41.3,50,41.3z M50,78.4c-11.9,0-22.1-7.4-26.3-17.8c2.7,0.7,5.2,0.1,6.9-0.5v2.7c0,2.8,2.4,5.2,5.3,5.2   c2.9,0,5.3-2.3,5.3-5.2v-5c2.2,2.4,5.3,3.9,8.8,3.9s6.6-1.5,8.8-3.9v5c0,2.8,2.4,5.2,5.3,5.2s5.3-2.3,5.3-5.2v-2.7   c1.7,0.6,4.3,1.2,7,0.5C72.1,71.1,61.9,78.4,50,78.4z M28.3,50.7c-0.4,0-0.8-0.1-1.1-0.4c-0.6-0.6-0.6-1.5,0-2.1l3.4-3.4   c0.6-0.6,1.5-0.6,2.1,0c0.6,0.6,0.6,1.5,0,2.1l-3.4,3.4C29.1,50.5,28.7,50.7,28.3,50.7z M35.3,35.7c-0.4,0-0.8-0.1-1.1-0.4   c-0.6-0.6-0.6-1.5,0-2.1l3.4-3.4c0.6-0.6,1.5-0.6,2.1,0c0.6,0.6,0.6,1.5,0,2.1l-3.4,3.4C36.1,35.5,35.7,35.7,35.3,35.7z M60.3,35.7   c-0.4,0-0.8-0.1-1.1-0.4c-0.6-0.6-0.6-1.5,0-2.1l3.4-3.4c0.6-0.6,1.5-0.6,2.1,0c0.6,0.6,0.6,1.5,0,2.1l-3.4,3.4   C61.1,35.5,60.7,35.7,60.3,35.7z M68.3,50.7c-0.4,0-0.8-0.1-1.1-0.4c-0.6-0.6-0.6-1.5,0-2.1l3.4-3.4c0.6-0.6,1.5-0.6,2.1,0   c0.6,0.6,0.6,1.5,0,2.1l-3.4,3.4C69.1,50.5,68.7,50.7,68.3,50.7z"/>
</g>
<g id="_x32_"/>
<g id="_x33_"/>
<g id="_x34_"/>
<g id="_x35_"/>
<g id="_x36_"/>
<g id="_x37_"/>
<g id="_x38_"/>
<g id="_x39_"/>
<g id="_x31_0"/>
<g id="_x31_1"/>
<g id="_x31_2"/>
<g id="_x31_3"/>
<g id="_x31_4"/>
<g id="_x31_5"/>
<g id="_x31_6"/>
<g id="_x31_7"/>
<g id="_x31_8"/>
<g id="_x31_9"/>
<g id="_x32_0"/>
<g id="_x32_1"/>
<g id="_x32_2"/>
<g id="_x32_3"/>
<g id="_x32_4"/>
</svg>