<?xml version="1.0" ?>
<!DOCTYPE svg  PUBLIC '-//W3C//DTD SVG 1.1//EN'  'http://www.w3.org/Graphics/SVG/1.1/DTD/svg11.dtd'>
<!-- Uploaded to: SVG Repo, www.svgrepo.com, Generator: SVG Repo Mixer Tools -->
<svg fill="#000000" width="800px" height="800px" viewBox="0 0 100 100" version="1.1" xml:space="preserve" xmlns="http://www.w3.org/2000/svg" xmlns:xlink="http://www.w3.org/1999/xlink">
<g id="_x31_"/>
<g id="_x32_"/>
<g id="_x33_"/>
<g id="_x34_"/>
<g id="_x35_"/>
<g id="_x36_"/>
<g id="_x37_"/>
<g id="_x38_"/>
<g id="_x39_"/>
<g id="_x31_0"/>
<g id="_x31_1"/>
<g id="_x31_2"/>
<g id="_x31_3"/>
<g id="_x31_4">
<path d="M57.4,88.5H42.6c-0.8,0-1.4-0.6-1.5-1.3l-3-23.3c-0.1-0.4,0.1-0.9,0.4-1.2c0.3-0.3,0.7-0.5,1.1-0.5h20.8   c0.4,0,0.8,0.2,1.1,0.5c0.3,0.3,0.4,0.8,0.4,1.2l-3,23.3C58.8,88,58.1,88.5,57.4,88.5z M43.9,85.5h12.1l2.6-20.3H41.3L43.9,85.5z    M61.7,65.3H38.3c-5.1,0-9.3-4.2-9.3-9.3V44.3c0-0.8,0.7-1.5,1.5-1.5h23.3c0.8,0,1.5,0.7,1.5,1.5v3.5c0,1.6,1.3,2.9,2.9,2.9   c1.6,0,2.9-1.3,2.9-2.9v-3.5c0-0.8,0.7-1.5,1.5-1.5h7c0.8,0,1.5,0.7,1.5,1.5V56C71,61.1,66.8,65.3,61.7,65.3z M32,45.8V56   c0,3.5,2.8,6.3,6.3,6.3h23.4c3.5,0,6.3-2.8,6.3-6.3V45.8h-4v2c0,3.2-2.6,5.9-5.9,5.9c-3.2,0-5.9-2.6-5.9-5.9v-2H32z M58.1,53.6   c-3.2,0-5.9-2.6-5.9-5.9v-2H31.9c-3.5,0-6.4-3.1-6.4-6.9c0-2.9,1.7-5.4,4-6.4c0-0.2,0-0.4,0-0.6c0-3.8,2.9-6.9,6.4-6.9h1.2   C37,24.5,37,24.1,37,23.6c0-3.8,2.9-6.9,6.4-6.9h8.9c3.4-3.3,5.4-6.4,5.4-8.2c0-0.8,0.6-1.5,1.4-1.5c0.8-0.1,1.5,0.5,1.6,1.3   l1.1,8.5c3,0.5,5.3,3.4,5.3,6.8c0,0.6-0.1,1.3-0.2,1.9c2.3,1,4,3.5,4,6.4c0,0.2,0,0.5,0,0.8c2.2,1.1,3.6,3.5,3.6,6.2   c0,3.8-2.9,6.9-6.4,6.9H64v2C64,51,61.4,53.6,58.1,53.6z M36,28c-1.9,0-3.4,1.7-3.4,3.9c0,0.4,0.1,0.8,0.2,1.2   c0.1,0.4,0.1,0.9-0.2,1.2S32,34.9,31.5,35c-1.7,0.2-3,1.9-3,3.8c0,2.2,1.5,3.9,3.4,3.9h21.8c0.8,0,1.5,0.7,1.5,1.5v3.5   c0,1.6,1.3,2.9,2.9,2.9c1.6,0,2.9-1.3,2.9-2.9v-3.5c0-0.8,0.7-1.5,1.5-1.5h5.6c1.9,0,3.4-1.7,3.4-3.9c0-1.8-1.1-3.4-2.7-3.8   c-0.4-0.1-0.7-0.4-0.9-0.7c-0.2-0.4-0.3-0.8-0.1-1.2c0.1-0.5,0.2-0.9,0.2-1.3c0-2-1.4-3.7-3.1-3.9c-0.5,0-1-0.3-1.2-0.8   c-0.2-0.5-0.2-1,0-1.4c0.4-0.7,0.6-1.4,0.6-2.2c0-2.2-1.5-3.9-3.4-3.9h-0.3c-0.8,0-1.4-0.6-1.5-1.3l-0.6-4.2   c-1.1,1.6-2.6,3.3-4.5,5.1c-0.3,0.3-0.6,0.4-1,0.4h-9.5c-1.9,0-3.4,1.8-3.4,3.9c0,0.7,0.2,1.5,0.6,2.1c0.3,0.5,0.3,1,0,1.5   c-0.3,0.5-0.8,0.7-1.3,0.7H36z M59.1,27c0-0.8-0.7-1.5-1.5-1.5H50c-0.8,0-1.5,0.7-1.5,1.5s0.7,1.5,1.5,1.5h7.6   C58.5,28.5,59.1,27.8,59.1,27z M49.1,36c0-0.8-0.7-1.5-1.5-1.5H40c-0.8,0-1.5,0.7-1.5,1.5s0.7,1.5,1.5,1.5h7.6   C48.5,37.5,49.1,36.8,49.1,36z M41.9,60.6c-3.3,0-6-2.7-6-6s2.7-6,6-6s6,2.7,6,6S45.2,60.6,41.9,60.6z M41.9,51.6c-1.7,0-3,1.3-3,3   s1.3,3,3,3s3-1.3,3-3S43.5,51.6,41.9,51.6z"/>
</g>
<g id="_x31_5"/>
<g id="_x31_6"/>
<g id="_x31_7"/>
<g id="_x31_8"/>
<g id="_x31_9"/>
<g id="_x32_0"/>
<g id="_x32_1"/>
<g id="_x32_2"/>
<g id="_x32_3"/>
<g id="_x32_4"/>
</svg>