<?xml version="1.0" encoding="iso-8859-1"?>
<!-- Uploaded to: SVG Repo, www.svgrepo.com, Generator: SVG Repo Mixer Tools -->
<!DOCTYPE svg PUBLIC "-//W3C//DTD SVG 1.1//EN" "http://www.w3.org/Graphics/SVG/1.1/DTD/svg11.dtd">
<svg fill="#000000" version="1.1" id="Capa_1" xmlns="http://www.w3.org/2000/svg" xmlns:xlink="http://www.w3.org/1999/xlink" 
	 width="800px" height="800px" viewBox="0 0 212.041 212.042"
	 xml:space="preserve">
<g>
	<path d="M210.896,93.488c-4.555-23.105-19.647-38.034-38.45-38.034c-2.43,0-8.347,0.945-8.801,1.051l-1.158-10.626
		c12.045-6.38,19.91-9.322,20.083-9.385c1.739-0.639,2.633-2.568,1.992-4.308c-0.64-1.74-2.568-2.633-4.308-1.992
		c-0.639,0.235-11.682,4.347-27.833,13.534c-5.18,0.591-10.425,0.607-15.56,0.209c0.378-1.943,0.218-3.877-0.545-6.133
		c-1.813-5.371-10.082-20.108-26.327-23.746c-4.861-1.089-9.329-1.618-13.662-1.618c-7.077,0-12.711,1.432-18.158,2.816
		c-5.201,1.322-10.113,2.57-16.447,2.755c-1.436,0.042-2.686,0.994-3.109,2.367c-0.423,1.374,0.076,2.864,1.24,3.706
		c2.596,1.879,5.371,6.861,8.308,12.134c5.671,10.18,12.728,22.85,25.554,28.069c3.619,1.48,7.39,2.231,11.208,2.231h0.003
		c13.75,0,24.845-9.703,27.796-14.13c0.451-0.678,0.867-1.321,1.251-1.941c2.237,0.219,4.504,0.364,6.788,0.434
		c-4.223,2.713-9.032,5.824-9.96,6.467c-12.58,8.728-24.334,18.376-35.077,28.765c-5.45,0.926-11.013,1.186-16.469,0.987
		c0.298-1.958,0.059-3.884-0.795-6.108c-2.032-5.292-10.895-19.678-27.276-22.65c-4.091-0.742-7.86-1.102-11.521-1.102
		c-8.147,0-14.285,1.83-20.222,3.6c-5.143,1.533-10,2.982-16.321,3.425c-1.434,0.101-2.644,1.103-3.01,2.492
		c-0.366,1.39,0.193,2.858,1.391,3.652c2.67,1.771,5.646,6.635,8.796,11.784c6.082,9.94,13.651,22.312,26.68,27.001
		c3.29,1.191,6.687,1.796,10.095,1.796c0,0,0.002,0,0.003,0c14.277,0,25.475-10.492,28.391-15.278
		c0.423-0.696,0.812-1.355,1.171-1.991c1.933,0.109,9.632,0.115,11.532-0.001c-0.298,0.313-0.601,0.623-0.897,0.937
		c-16.165,17.118-29.656,36.061-40.098,56.299c-0.85,1.647-0.203,3.672,1.444,4.521c0.492,0.254,1.018,0.375,1.536,0.375
		c1.216-0.001,2.389-0.664,2.985-1.818c9.599-18.604,21.117-34.591,33.052-48.146l2.006,7.815
		c-6.727,3.631-11.872,9.246-15.094,16.597c-4.115,9.387-4.735,21.185-1.745,33.222c5.36,21.58,21.05,36.079,39.042,36.079
		c2.848,0,5.743-0.361,8.607-1.072c10.62-2.638,18.997-9.7,23.593-19.885c4.334-9.608,5.094-21.451,2.141-33.349
		c-2.591-10.428-7.394-19.32-13.89-25.713c-6.939-6.832-15.46-10.442-24.641-10.442c-2.985,0-10.899,1.633-11.764,1.911
		c0,0-2.803-10.593-3.033-10.917c14.996-16.025,30.308-28.302,43.036-37.147c7.805-5.424,15.161-9.942,21.667-13.621l1.01,9.264
		c-7.456,3.238-13.271,8.798-17.048,16.383c-4.568,9.175-5.764,20.929-3.363,33.097c4.478,22.719,20.114,37.982,38.909,37.982
		c2.299,0,4.646-0.233,6.974-0.692c10.735-2.116,19.449-8.76,24.536-18.71C211.931,117.307,213.267,105.515,210.896,93.488z
		 M130.147,43.193c-21.39-3.06-39.261-11.955-39.559-12.105c-1.654-0.838-3.673-0.175-4.511,1.478
		c-0.837,1.653-0.175,3.673,1.478,4.51c0.995,0.505,17.869,8.93,38.967,12.393c-2.803,3.352-11.363,10.339-21.602,10.338
		c-2.943-0.001-5.859-0.583-8.673-1.734c-10.646-4.331-17.067-15.858-22.225-25.12c-1.817-3.262-3.503-6.289-5.247-8.827
		c4.016-0.578,7.57-1.481,11.045-2.364c5.28-1.342,10.266-2.609,16.505-2.609c3.832,0,7.821,0.476,12.194,1.455
		c13.158,2.947,20.058,15.263,21.437,19.345C130.33,41.055,130.546,41.878,130.147,43.193z M72.517,86.634
		C51.02,84.45,32.8,76.29,32.497,76.153c-1.688-0.77-3.677-0.026-4.446,1.661c-0.769,1.687-0.026,3.677,1.661,4.446
		c1.015,0.463,18.22,8.193,39.444,10.79c-2.765,3.611-11.438,11.231-22.081,11.231h-0.002c-2.628,0-5.256-0.47-7.817-1.397
		c-10.814-3.893-17.7-15.148-23.233-24.192c-1.948-3.184-3.757-6.14-5.603-8.604c3.989-0.742,7.503-1.789,10.94-2.814
		c5.728-1.707,11.137-3.32,18.305-3.32c3.255,0,6.632,0.326,10.323,0.995c13.269,2.407,20.664,14.43,22.209,18.451
		C72.613,84.488,72.862,85.302,72.517,86.634z M98.707,116.804c2.537-0.63,5.062-0.95,7.502-0.95
		c14.989,0,27.257,11.902,32.016,31.061c5.412,21.791-3.35,40.758-20.835,45.103c-2.336,0.58-4.688,0.875-6.99,0.875
		c-14.852,0-27.923-12.452-32.527-30.986C73.222,143.187,77.861,121.982,98.707,116.804z M201.156,123.637
		c-4.191,8.195-11.058,13.445-19.857,15.18c-1.902,0.375-3.812,0.564-5.676,0.564c-15.494,0-28.484-13.088-32.324-32.567
		c-2.114-10.722-1.125-20.952,2.786-28.807c3.247-6.521,8.377-11.188,14.994-13.722c0.013-0.001,0.024-0.001,0.038-0.002
		c0.544-0.06,1.042-0.248,1.471-0.529c1.199-0.388,2.437-0.717,3.723-0.97c2.076-0.41,4.141-0.617,6.135-0.617
		c15.451,0,27.959,12.804,31.865,32.62C206.392,105.341,205.271,115.586,201.156,123.637z"/>
</g>
</svg>