<?xml version="1.0" encoding="iso-8859-1"?>
<!-- Uploaded to: SVG Repo, www.svgrepo.com, Generator: SVG Repo Mixer Tools -->
<svg fill="#000000" version="1.1" id="Layer_1" xmlns="http://www.w3.org/2000/svg" xmlns:xlink="http://www.w3.org/1999/xlink" 
	 viewBox="0 0 511.999 511.999" xml:space="preserve">
<g>
	<g>
		<path d="M175.951,216.133c-74.95,0-135.926,60.976-135.926,135.926s60.976,135.926,135.926,135.926
			s135.927-60.976,135.927-135.926S250.901,216.133,175.951,216.133z M85.611,272.816l71.442,71.442H55.981
			C57.737,316.984,68.623,292.16,85.611,272.816z M55.986,359.952H156.96l-71.349,71.349
			C68.642,411.979,57.761,387.189,55.986,359.952z M167.68,472c-27.087-1.85-51.738-12.709-70.971-29.601l70.971-70.971V472z
			 M167.68,332.689l-70.971-70.971c19.234-16.892,43.883-27.751,70.971-29.601V332.689z M295.923,344.257H194.85l71.442-71.442
			C283.281,292.16,294.167,316.984,295.923,344.257z M183.375,232.064c27.421,1.678,52.386,12.586,71.819,29.654l-71.819,71.819
			V232.064z M183.375,472.054V370.58l71.82,71.82C235.761,459.468,210.796,470.376,183.375,472.054z M266.293,431.302
			l-71.349-71.349h100.974C294.143,387.188,283.263,411.979,266.293,431.302z"/>
	</g>
</g>
<g>
	<g>
		<rect x="88.155" y="312.864" width="15.695" height="15.695"/>
	</g>
</g>
<g>
	<g>
		<rect x="200.112" y="424.822" width="15.695" height="15.695"/>
	</g>
</g>
<g>
	<g>
		<rect x="255.568" y="312.864" width="16.741" height="15.695"/>
	</g>
</g>
<g>
	<g>
		<path d="M469.617,129.628c-17.065-36.853-40.901-65.06-68.933-81.574c-5.483-3.229-8.757-8.676-8.757-14.569v-1.302
			C391.927,14.437,377.49,0,359.743,0h-31.376c-17.746,0-32.184,14.437-32.184,32.184v1.46c0,5.876-3.184,11.251-8.519,14.378
			c-43.441,25.46-76.707,79.673-89.6,145.633c-7.231-1.005-14.611-1.536-22.113-1.536c-88.192,0-159.94,71.749-159.94,159.94
			s71.749,159.94,159.94,159.94c44.145,0,84.168-17.978,113.137-46.995c4.4,2.932,7.094,8.029,7.094,13.544v1.267
			c0,17.746,14.437,32.184,32.184,32.184h31.376c17.746,0,32.184-14.437,32.184-32.184v-1.302c0-5.519,2.872-10.647,7.741-13.929
			l1.344-0.839c27.889-16.54,51.607-44.667,68.605-81.374c17.254-37.26,26.374-80.958,26.374-126.371
			S486.871,166.888,469.617,129.628z M175.951,496.305c-79.538,0-144.245-64.708-144.245-144.245s64.708-144.245,144.245-144.245
			s144.245,64.708,144.245,144.245S255.489,496.305,175.951,496.305z M478.601,288.802c-3.244,31.196-11.107,60.803-23.225,86.975
			c-15.194,32.811-35.945,58.021-60.137,73.114H344.51v15.695h34.949c-2.093,4.283-3.227,9.012-3.227,13.929v1.302
			c0,9.092-7.396,16.489-16.489,16.489h-7.909v-16.023h-15.695v16.023h-7.772c-9.092,0-16.489-7.396-16.489-16.489v-1.267
			c0-9.973-4.59-19.291-12.207-25.242c7.189-8.769,13.47-18.31,18.69-28.482h17.778V409.13h-10.78
			c6.797-17.735,10.534-36.973,10.534-57.071c0-22.457-4.661-43.846-13.053-63.257h21.671v-15.695h-29.505
			c-13.106-22.993-31.75-42.433-54.103-56.502h18.735V200.91h-51.27v0.04c-4.86-1.691-9.825-3.152-14.884-4.373
			c4.852-24.802,12.701-47.762,22.932-67.864h35.898v-15.695h-27.069c12.999-20.92,28.836-37.818,46.637-49.178h52.63V48.145
			h-36.194c2.295-4.454,3.562-9.412,3.562-14.501v-1.46c0-9.092,7.396-16.489,16.489-16.489h7.772v15.709h15.695V15.695h7.909
			c9.092,0,16.489,7.397,16.489,16.489v1.302c0,11.51,6.163,22.012,16.485,28.092c25.272,14.888,46.939,40.7,62.658,74.645
			C471.68,171.43,480.297,212.848,480.297,256c0,5.737-0.163,11.441-0.466,17.107h-24.409v15.695H478.601z"/>
	</g>
</g>
<g>
	<g>
		<rect x="272.309" y="152.775" width="15.695" height="15.695"/>
	</g>
</g>
<g>
	<g>
		<rect x="288.004" y="169.516" width="31.39" height="15.695"/>
	</g>
</g>
<g>
	<g>
		<rect x="344.506" y="200.906" width="15.695" height="15.695"/>
	</g>
</g>
<g>
	<g>
		<rect x="401.008" y="216.601" width="14.649" height="15.695"/>
	</g>
</g>
<g>
	<g>
		<rect x="415.657" y="192.536" width="25.112" height="15.695"/>
	</g>
</g>
<g>
	<g>
		<rect x="424.027" y="335.883" width="16.741" height="15.695"/>
	</g>
</g>
<g>
	<g>
		<rect x="375.896" y="321.235" width="25.112" height="15.695"/>
	</g>
</g>
<g>
	<g>
		<rect x="336.135" y="96.273" width="16.741" height="15.695"/>
	</g>
</g>
<g>
	<g>
		<rect x="401.008" y="121.385" width="31.39" height="15.695"/>
	</g>
</g>
<g>
	<g>
		<rect x="401.008" y="400.756" width="14.649" height="15.695"/>
	</g>
</g>
</svg>