<?xml version="1.0" encoding="iso-8859-1"?>
<!-- Uploaded to: SVG Repo, www.svgrepo.com, Generator: SVG Repo Mixer Tools -->
<svg fill="#000000" height="800px" width="800px" version="1.1" id="Layer_1" xmlns="http://www.w3.org/2000/svg" xmlns:xlink="http://www.w3.org/1999/xlink" 
	 viewBox="0 0 512.001 512.001" xml:space="preserve">
<g>
	<g>
		<path d="M437.011,74.985C388.66,26.633,324.374,0.005,255.995,0.005S123.329,26.633,74.977,74.985C26.627,123.336,0,187.622,0,256
			s26.627,132.665,74.978,181.016c48.352,48.351,112.637,74.979,181.018,74.979c68.378,0,132.665-26.628,181.015-74.979
			c11.689-11.687,22.26-24.503,31.423-38.089c2.744-4.07,1.669-9.596-2.4-12.339c-4.071-2.745-9.594-1.67-12.341,2.4
			c-8.525,12.644-18.367,24.573-29.252,35.458c-92.88,92.88-244.009,92.88-336.888,0c-92.881-92.881-92.881-244.01,0-336.89
			c92.88-92.88,244.009-92.881,336.888,0c71.603,71.603,90.141,180.937,46.13,272.066c-2.135,4.421-0.281,9.735,4.139,11.87
			c4.419,2.133,9.735,0.282,11.871-4.139C533.873,269.422,513.954,151.928,437.011,74.985z"/>
	</g>
</g>
<g>
	<g>
		<path d="M200.356,106.975c-1.965-4.497-7.205-6.55-11.706-4.582c-19.108,8.358-36.345,20.144-51.231,35.029
			c-32.892,32.892-50.749,78.432-48.994,124.941c0.181,4.792,4.123,8.554,8.877,8.554c0.114,0,0.226-0.002,0.341-0.006
			c4.906-0.185,8.733-4.312,8.548-9.219c-1.57-41.581,14.393-82.293,43.799-111.699c13.311-13.311,28.716-23.847,45.785-31.312
			C200.273,116.714,202.323,111.473,200.356,106.975z"/>
	</g>
</g>
<g>
	<g>
		<path d="M405.021,311.635c-4.501-1.966-9.742,0.084-11.709,4.582c-7.468,17.071-18.002,32.475-31.314,45.785
			c-29.402,29.402-70.099,45.368-111.692,43.807c-4.921-0.179-9.031,3.643-9.216,8.549c-0.184,4.906,3.643,9.033,8.55,9.216
			c2.084,0.078,4.162,0.117,6.241,0.117c44.318,0,87.275-17.704,118.69-49.119c14.884-14.884,26.669-32.121,35.029-51.231
			C411.569,318.844,409.519,313.603,405.021,311.635z"/>
	</g>
</g>
<g>
	<g>
		<path d="M401.865,173.205c-7.421-13.047-16.604-25.083-27.296-35.775c-10.711-10.711-22.755-19.895-35.796-27.299
			c-4.27-2.424-9.695-0.927-12.12,3.342c-2.424,4.269-0.927,9.695,3.341,12.119c11.654,6.616,22.422,14.828,32.003,24.41
			c9.566,9.566,17.779,20.33,24.413,31.993c1.639,2.88,4.643,4.496,7.735,4.496c1.49,0,3-0.375,4.386-1.164
			C402.8,182.899,404.291,177.473,401.865,173.205z"/>
	</g>
</g>
<g>
	<g>
		<path d="M277.759,220.809c-0.119-0.569-0.283-1.138-0.51-1.671c-0.224-0.533-0.498-1.055-0.817-1.529
			c-0.321-0.486-0.701-0.948-1.103-1.351c-2.074-2.062-5.144-3.01-8.024-2.43c-0.569,0.107-1.126,0.284-1.659,0.51
			c-0.545,0.213-1.055,0.498-1.541,0.818c-0.486,0.32-0.936,0.687-1.351,1.102c-0.404,0.403-0.782,0.865-1.103,1.351
			c-0.32,0.474-0.593,0.996-0.817,1.529c-0.225,0.533-0.391,1.102-0.511,1.671c-0.119,0.569-0.166,1.15-0.166,1.73
			s0.047,1.161,0.166,1.742c0.12,0.557,0.286,1.126,0.511,1.659c0.224,0.533,0.498,1.055,0.817,1.529
			c0.321,0.486,0.699,0.948,1.103,1.351c0.415,0.415,0.864,0.782,1.351,1.114c0.486,0.32,0.996,0.593,1.541,0.818
			c0.533,0.213,1.09,0.391,1.659,0.498c0.568,0.119,1.16,0.178,1.742,0.178c2.335,0,4.622-0.948,6.282-2.607
			c0.403-0.403,0.782-0.865,1.103-1.351c0.32-0.474,0.593-0.996,0.817-1.529c0.225-0.533,0.391-1.102,0.51-1.659
			c0.12-0.581,0.178-1.161,0.178-1.742C277.937,221.959,277.877,221.378,277.759,220.809z"/>
	</g>
</g>
<g>
	<g>
		<path d="M298.17,241.219c-0.12-0.569-0.284-1.126-0.511-1.671c-0.213-0.533-0.498-1.043-0.817-1.529
			c-0.321-0.486-0.687-0.936-1.102-1.351c-0.404-0.415-0.865-0.782-1.352-1.102c-0.487-0.32-0.996-0.593-1.529-0.818
			c-0.545-0.225-1.102-0.391-1.671-0.51c-1.138-0.225-2.323-0.225-3.473,0c-0.568,0.119-1.126,0.284-1.659,0.51
			c-0.532,0.225-1.055,0.498-1.541,0.818c-0.486,0.32-0.936,0.687-1.351,1.102c-0.403,0.415-0.782,0.865-1.102,1.351
			c-0.321,0.486-0.593,0.996-0.818,1.529c-0.225,0.545-0.391,1.102-0.51,1.671c-0.107,0.569-0.167,1.15-0.167,1.73
			c0,0.581,0.06,1.161,0.167,1.742c0.118,0.569,0.284,1.126,0.51,1.659c0.225,0.533,0.498,1.055,0.818,1.541
			c0.32,0.486,0.699,0.936,1.102,1.351c0.415,0.403,0.864,0.782,1.351,1.102s1.009,0.593,1.541,0.818
			c0.533,0.225,1.092,0.391,1.659,0.51c0.581,0.107,1.161,0.166,1.742,0.166c0.581,0,1.161-0.059,1.73-0.166
			c0.569-0.119,1.126-0.284,1.671-0.51c0.533-0.225,1.043-0.498,1.529-0.818c0.486-0.32,0.948-0.699,1.352-1.102
			c0.415-0.415,0.781-0.865,1.102-1.351c0.32-0.486,0.604-1.007,0.817-1.541c0.225-0.533,0.391-1.09,0.511-1.659
			c0.119-0.581,0.177-1.161,0.177-1.742C298.346,242.368,298.287,241.788,298.17,241.219z"/>
	</g>
</g>
<g>
	<g>
		<path d="M449.099,159.172l-0.945-0.945c-3.473-3.471-9.1-3.471-12.572,0l-53.821,53.821c-8.992,8.993-13.946,20.95-13.946,33.669
			s4.954,24.675,13.946,33.667c2.091,2.091,4.336,3.932,6.688,5.553c-15.115,20.238-28.214,33.094-34.492,38.802
			c-9.452-4.294-31.309-14.789-56.559-30.713c7.86-12.324,15.485-28.737,22.979-49.424c7.792-21.511,13.237-41.749,15.801-51.951
			l17.452-0.155l-23.424,70.269c-1.553,4.657,0.964,9.692,5.622,11.244c0.933,0.31,1.881,0.459,2.813,0.459
			c3.723,0,7.19-2.356,8.432-6.08l27.36-82.08c0.908-2.724,0.444-5.719-1.246-8.041s-4.345-3.691-7.268-3.659l-27.78,0.248
			l0.249-27.78c0.025-2.872-1.338-5.578-3.66-7.268c-2.322-1.69-5.316-2.152-8.041-1.246l-82.08,27.36
			c-4.658,1.553-7.174,6.586-5.622,11.244c1.554,4.657,6.585,7.174,11.244,5.622l70.268-23.424l-0.155,17.451
			c-10.201,2.565-30.44,8.01-51.952,15.801c-20.687,7.494-37.1,15.119-49.424,22.979c-15.931-25.259-26.428-47.123-30.717-56.569
			c5.681-6.264,18.479-19.313,38.804-34.484c1.62,2.354,3.463,4.599,5.554,6.691c9.283,9.283,21.476,13.923,33.669,13.923
			s24.386-4.641,33.669-13.924l53.821-53.821c1.666-1.666,2.603-3.928,2.603-6.286s-0.937-4.619-2.604-6.286l-0.943-0.943
			c-16.055-16.055-37.402-24.897-60.107-24.897s-44.052,8.842-60.107,24.897c-11.896,11.896-16.156,28.571-12.805,43.902
			c-32.525,23.691-48.236,43.28-48.921,44.144c-2.007,2.53-2.484,5.95-1.246,8.932c0.531,1.279,12.567,30.028,35.129,65.525
			c-4.117,3.852-7.333,7.768-9.643,11.76l-61.174,61.174l-0.366-0.366c-8.381-8.381-19.531-12.997-31.393-12.997
			s-23.011,4.616-31.393,12.997c-17.305,17.305-17.302,45.467,0.009,62.779l80.442,80.443c8.658,8.657,20.027,12.985,31.398,12.985
			c11.365,0,22.73-4.326,31.382-12.977c8.381-8.382,12.997-19.53,12.997-31.393c0-11.863-4.616-23.012-12.998-31.393l-0.365-0.365
			l61.169-61.17c3.993-2.31,7.91-5.527,11.765-9.647c35.496,22.56,64.245,34.595,65.524,35.126c1.099,0.456,2.255,0.679,3.408,0.679
			c1.973,0,3.927-0.657,5.524-1.925c0.864-0.685,20.451-16.395,44.142-48.921c3.37,0.736,6.802,1.119,10.237,1.119
			c12.193,0.002,24.387-4.639,33.67-13.922C482.241,246.242,482.241,192.314,449.099,159.172z M287.376,117.661
			c-9.443,9.445-23.698,11.222-34.951,5.33l5.191-5.191c10.812-10.812,26.249-14.634,40.397-10.775L287.376,117.661z
			 M245.182,75.468c12.697-12.697,29.578-19.69,47.534-19.69c15.414,0,30.036,5.152,41.9,14.643l-22.774,22.774
			c-22.401-10.289-48.997-5.768-66.799,12.034l-5.19,5.19C233.961,99.165,235.737,84.912,245.182,75.468z M107.421,363.082
			l-4.567,4.567l-19.477-19.477c-10.379-10.377-10.383-27.26-0.01-37.634c5.024-5.024,11.709-7.79,18.823-7.79
			c7.115,0,13.799,2.766,18.823,7.789l0.409,0.409c-8.262,9.134-11.525,21.569-8.719,33.658c0.021,0.089,0.043,0.178,0.066,0.266
			C114.217,351.486,112.227,358.277,107.421,363.082z M131.773,396.568l-16.347-16.347l4.568-4.567
			c9.236-9.238,12.989-22.345,10.036-35.062c-0.021-0.089-0.043-0.178-0.066-0.266c-1.446-6.617,0.543-13.407,5.349-18.213
			l4.827-4.827l54.57,54.57l-4.829,4.829c-4.8,4.801-11.583,6.791-18.198,5.351c-0.094-0.025-0.186-0.049-0.281-0.07
			c-12.716-2.952-25.825,0.799-35.06,10.036L131.773,396.568z M201.457,428.625c-10.374,10.375-27.259,10.37-37.635-0.008
			l-19.477-19.477l4.568-4.568c4.801-4.801,11.589-6.79,18.198-5.351c0.094,0.025,0.186,0.049,0.281,0.07
			c12.09,2.805,24.523-0.456,33.658-8.718l0.408,0.408c5.024,5.024,7.79,11.708,7.79,18.823
			C209.247,416.917,206.481,423.602,201.457,428.625z M227.04,339.523l-31.468-31.468c-3.473-3.471-9.1-3.471-12.572,0
			c-3.472,3.471-3.472,9.1,0,12.57l31.468,31.468l-7.188,7.188l-54.57-54.57l7.188-7.19l6.509,6.508
			c1.735,1.735,4.011,2.604,6.285,2.604c2.274,0,4.55-0.868,6.286-2.604c3.471-3.471,3.471-9.1-0.001-12.572l-6.508-6.508
			l15.075-15.075c0.43,4.222,1.499,8.223,3.229,11.986c5.073,11.038,14.481,16.802,19.996,19.364
			c2.562,5.515,8.325,14.922,19.359,19.995c3.762,1.729,7.757,2.808,11.975,3.238L227.04,339.523z M264.206,302.374
			c-10.823,4.871-19.74,5.799-26.503,2.762c-8.443-3.793-11.499-13.003-11.599-13.31c-0.866-2.868-3.123-5.108-6.001-5.955
			c-0.091-0.027-9.335-3.07-13.178-11.431c-3.118-6.783-2.212-15.75,2.694-26.652c9.356-20.79,65.911-41.847,107.402-52.815
			C306.054,236.464,284.997,293.019,264.206,302.374z M388.999,259.577c-2.222-4.225-3.405-8.952-3.405-13.861
			c0-7.968,3.104-15.461,8.74-21.097l10.637-10.637c3.859,14.146,0.037,29.586-10.775,40.398L388.999,259.577z M436.526,266.813
			c-5.635,5.636-13.128,8.739-21.097,8.739c-4.909,0-9.636-1.182-13.861-3.404l5.197-5.197
			c17.802-17.803,22.321-44.398,12.034-66.799l22.77-22.769C462.615,203.75,460.934,242.406,436.526,266.813z"/>
	</g>
</g>
<g>
	<g>
		<circle cx="269.045" cy="222.537" r="8.889"/>
	</g>
</g>
<g>
	<g>
		<circle cx="289.455" cy="242.947" r="8.889"/>
	</g>
</g>
</svg>