<?xml version="1.0" encoding="iso-8859-1"?>
<!-- Uploaded to: SVG Repo, www.svgrepo.com, Generator: SVG Repo Mixer Tools -->
<svg fill="#000000" height="800px" width="800px" version="1.1" id="Layer_1" xmlns="http://www.w3.org/2000/svg" xmlns:xlink="http://www.w3.org/1999/xlink" 
	 viewBox="0 0 512 512" xml:space="preserve">
<g>
	<g>
		<g>
			<path d="M202.105,43.116c-1.485,0-2.695-1.208-2.695-2.695c0-4.466-3.62-8.084-8.084-8.084c-4.465,0-8.084,3.618-8.084,8.084
				c0,10.401,8.463,18.863,18.863,18.863H256c4.465,0,8.084-3.619,8.084-8.084s-3.62-8.084-8.084-8.084H202.105z"/>
			<path d="M361.095,121.263c0-15.628-7.868-29.455-19.849-37.726c11.982-8.272,19.849-22.098,19.849-37.726
				c0-25.26-20.55-45.811-45.81-45.811h-16.168c-4.465,0-8.084,3.619-8.084,8.084s3.62,8.084,8.084,8.084h16.168
				c16.345,0,29.642,13.298,29.642,29.642s-13.297,29.642-29.642,29.642h-16.168c-4.465,0-8.084,3.619-8.084,8.084
				s3.62,8.084,8.084,8.084h16.168c16.345,0,29.642,13.298,29.642,29.642s-13.297,29.642-29.642,29.642h-16.168
				c-4.465,0-8.084,3.618-8.084,8.084c0,4.466,3.62,8.084,8.084,8.084h16.168c16.345,0,29.642,13.298,29.642,29.642
				s-13.297,29.642-29.642,29.642h-16.168c-4.465,0-8.084,3.618-8.084,8.084c0,4.466,3.62,8.084,8.084,8.084h16.168
				c16.345,0,29.642,13.298,29.642,29.642c0,16.344-13.297,29.642-29.642,29.642H196.716c-16.345,0-29.642-13.298-29.642-29.642
				c0-16.344,13.297-29.642,29.642-29.642h70.063c4.465,0,8.084-3.618,8.084-8.084c0-4.466-3.62-8.084-8.084-8.084h-70.063
				c-16.345,0-29.642-13.298-29.642-29.642s13.297-29.642,29.642-29.642h70.063c4.465,0,8.084-3.618,8.084-8.084
				c0-4.466-3.62-8.084-8.084-8.084h-70.063c-16.345,0-29.642-13.298-29.642-29.642s13.297-29.642,29.642-29.642h70.063
				c4.465,0,8.084-3.619,8.084-8.084s-3.62-8.084-8.084-8.084h-70.063c-16.345,0-29.642-13.298-29.642-29.642
				s13.297-29.642,29.642-29.642h70.063c4.465,0,8.084-3.619,8.084-8.084S271.244,0,266.779,0h-70.063
				c-25.26,0-45.811,20.55-45.811,45.811c0,15.628,7.868,29.455,19.849,37.726c-11.982,8.272-19.849,22.098-19.849,37.726
				c0,15.628,7.868,29.455,19.849,37.726c-11.982,8.272-19.849,22.098-19.849,37.726c0,15.628,7.868,29.455,19.849,37.726
				c-11.982,8.272-19.849,22.098-19.849,37.726c0,25.26,20.55,45.811,45.811,45.811h29.642v164.379
				C226.358,498.702,239.655,512,256,512s29.642-13.298,29.642-29.642V317.979h29.642c25.26,0,45.81-20.55,45.81-45.811
				c0-15.628-7.868-29.455-19.849-37.726c11.982-8.272,19.849-22.098,19.849-37.726c0-15.628-7.868-29.455-19.849-37.726
				C353.227,150.718,361.095,136.892,361.095,121.263z M269.474,482.358c0,7.43-6.044,13.474-13.474,13.474
				s-13.474-6.044-13.474-13.474V317.979h26.947V482.358z"/>
			<path d="M202.105,118.568c-1.485,0-2.695-1.208-2.695-2.695c0-4.466-3.62-8.084-8.084-8.084c-4.465,0-8.084,3.618-8.084,8.084
				c0,10.401,8.463,18.863,18.863,18.863H256c4.465,0,8.084-3.619,8.084-8.084s-3.62-8.084-8.084-8.084H202.105z"/>
			<path d="M202.105,269.474c-1.485,0-2.695-1.208-2.695-2.695c0-4.466-3.62-8.084-8.084-8.084c-4.465,0-8.084,3.618-8.084,8.084
				c0,10.401,8.463,18.863,18.863,18.863H256c4.465,0,8.084-3.618,8.084-8.084c0-4.466-3.62-8.084-8.084-8.084H202.105z"/>
			<path d="M202.105,194.021c-1.485,0-2.695-1.208-2.695-2.695c0-4.466-3.62-8.084-8.084-8.084c-4.465,0-8.084,3.618-8.084,8.084
				c0,10.401,8.463,18.863,18.863,18.863H256c4.465,0,8.084-3.618,8.084-8.084c0-4.466-3.62-8.084-8.084-8.084H202.105z"/>
		</g>
	</g>
</g>
</svg>