<?xml version="1.0" encoding="iso-8859-1"?>
<!-- Uploaded to: SVG Repo, www.svgrepo.com, Generator: SVG Repo Mixer Tools -->
<!DOCTYPE svg PUBLIC "-//W3C//DTD SVG 1.1//EN" "http://www.w3.org/Graphics/SVG/1.1/DTD/svg11.dtd">
<svg fill="#000000" version="1.1" id="Capa_1" xmlns="http://www.w3.org/2000/svg" xmlns:xlink="http://www.w3.org/1999/xlink" 
	 width="800px" height="800px" viewBox="0 0 218.235 218.235"
	 xml:space="preserve">
<g>
	<path d="M218.141,118.465c-0.203-0.95-1.071-3.16-4.763-3.16h-8.238c-1.863,0-3.375,1.511-3.375,3.375
		c0,1.863,1.512,3.375,3.375,3.375h0.109c-7.46,4.101-19.828,10.072-31.117,15.13h-14.067c-1.863,0-3.375,1.511-3.375,3.375
		s1.512,3.375,3.375,3.375h7.717l-3.776,4.949h-110.3l-3.435-4.949h88.944c1.864,0,3.375-1.511,3.375-3.375
		s-1.511-3.375-3.375-3.375h-95.37c-11.226-5.058-23.526-11.031-30.93-15.13h175.464c1.493,0,2.757-0.971,3.202-2.314
		c0.256-0.522,0.384-1.118,0.335-1.741c-0.057-0.737-1.537-18.172-13.304-26.4c-3.751-2.622-8.066-3.993-12.892-4.125
		c-0.886-2.535-3.335-8.395-8.522-13.798c-6.21-6.467-17.625-13.496-36.74-10.262c-9.277,1.57-15.888,6.16-20.599,12.064
		c-1.795-1.497-5.227-3.907-10.194-5.436c-6.707-2.065-17.683-2.913-31.89,4.777c-29.243,15.824-33.136,38.951-33.287,39.927
		c-0.03,0.188-0.038,0.375-0.036,0.56H4.865c-3.693,0-4.565,2.211-4.769,3.161c-0.638,2.979,1.914,5.06,7.512,8.33
		c3.334,1.947,8.01,4.408,13.898,7.312c9.957,4.912,20.132,9.484,20.233,9.53c0.05,0.021,0.101,0.039,0.152,0.059l7.278,10.485
		c0.631,0.909,1.666,1.451,2.772,1.451h113.736c1.053,0,2.045-0.491,2.684-1.328l8.274-10.848c1.99-0.895,11.055-4.988,19.955-9.352
		c5.925-2.905,10.63-5.365,13.986-7.313C216.208,123.524,218.776,121.445,218.141,118.465z M51.561,103.12
		c2.247,1.274,5.313,3.226,7.056,5.104c0.765,0.823,1.325,1.928,1.666,3.284c0.385,1.53,1.76,2.552,3.27,2.552
		c0.273,0,0.55-0.033,0.826-0.104c1.808-0.455,2.904-2.289,2.45-4.097c-0.621-2.47-1.721-4.567-3.265-6.229
		c-1.952-2.105-4.776-4.049-7.105-5.463c1.278-1.097,2.657-2.149,4.117-3.162c2.809,1.459,7.426,4.208,9.552,6.941
		c0.884,1.138,2.059,3.5,2.638,8.29c0.207,1.713,1.663,2.971,3.347,2.971c0.135,0,0.271-0.008,0.409-0.024
		c1.851-0.224,3.17-1.905,2.946-3.755c-0.613-5.078-1.962-8.989-4.011-11.625c-2.086-2.681-5.352-5.042-8.173-6.768
		c1.747-0.843,3.406-1.489,4.972-1.97c6.215,9.721,13.12,11.798,17.266,12.037c-0.975,5.872-1.186,11.028-1.2,14.201H44.885
		C46.245,110.882,48.476,106.812,51.561,103.12z M90.942,94.381c-1.493,0.129-6.233-0.068-11.281-6.518
		c7.135-0.059,11.078,3.329,11.364,3.585c0.191,0.175,0.397,0.321,0.613,0.444C91.388,92.724,91.157,93.555,90.942,94.381z
		 M142.665,95.756c-2.617-2.458-8.276-7.164-14.998-9.084c-3.909-1.117-8.989-0.787-13.329,0.203
		c1.502-1.384,3.29-2.534,5.432-3.345c15.196-5.757,23.877,4.761,26.87,9.403C145.296,93.788,143.968,94.737,142.665,95.756z
		 M108.894,95.746c0.127-0.091,0.251-0.188,0.367-0.299c1.808-1.215,11.449-3.743,16.552-2.285c4.969,1.419,9.421,4.964,11.74,7.066
		c-1.007,0.976-1.986,1.983-2.935,3.012c-1.789-1.407-4.968-3.286-10.348-4.823c-5.953-1.701-12.396,0.147-16.536,1.859
		C108.021,98.746,108.401,97.223,108.894,95.746z M107.052,114.298c-0.098-1.78-0.163-3.889-0.103-6.155
		c2.506-1.489,9.897-4.827,15.468-3.236c4.326,1.236,6.694,2.646,7.838,3.499c-1.794,2.319-3.394,4.654-4.744,6.899h-18.404
		C107.089,114.981,107.071,114.65,107.052,114.298z M184.701,115.305h-6.137c-0.779-6.165-4.44-15.514-14.25-15.514
		c-5.572,0-11.614,2.826-17.961,8.398c-1.399,1.229-1.537,3.362-0.309,4.762c1.23,1.4,3.363,1.539,4.763,0.31
		c5.005-4.396,9.677-6.719,13.506-6.719c5.185,0,6.874,5.641,7.413,8.764h-38.174c6.091-8.746,15.358-17.613,23.649-19.935
		c7.106-1.99,13.003-1.403,17.52,1.745C181.246,101.663,183.779,110.532,184.701,115.305z M121.583,70.069
		c25.269-4.278,34.53,11.702,37.157,18.006c-1.099,0.211-2.218,0.476-3.358,0.796c-0.938,0.263-1.88,0.594-2.82,0.973
		c-1.438-2.083-4.207-5.587-8.281-8.604c-5.801-4.294-13.312-9.814-25.814-4.454c-17.766,7.617-16.855,28.342-17.601,38.519h-5.792
		C95.106,105.412,97.18,74.197,121.583,70.069z M60.987,80.754c21.154-11.45,33.147-1.474,35.105,0.384
		c-0.75,1.352-1.429,2.738-2.044,4.144C89.958,82.481,78.085,76.62,60.542,87l-0.002,0.001c-0.179,0.106-0.359,0.213-0.545,0.326
		c-11.809,7.17-19.249,16.577-22.134,27.977H31.25C31.938,112.142,36.88,93.799,60.987,80.754z"/>
</g>
</svg>