<?xml version="1.0" encoding="iso-8859-1"?>
<!-- Uploaded to: SVG Repo, www.svgrepo.com, Generator: SVG Repo Mixer Tools -->
<!DOCTYPE svg PUBLIC "-//W3C//DTD SVG 1.1//EN" "http://www.w3.org/Graphics/SVG/1.1/DTD/svg11.dtd">
<svg fill="#000000" version="1.1" id="Capa_1" xmlns="http://www.w3.org/2000/svg" xmlns:xlink="http://www.w3.org/1999/xlink" 
	 width="800px" height="800px" viewBox="0 0 202.425 202.425"
	 xml:space="preserve">
<g>
	<g>
		<path d="M200.891,92.48c-0.261-0.672-1.424-3.431-3.736-5.872c-15.902-16.803-35.045-28.824-56.934-35.773
			c0.314-1.725,0.486-3.499,0.486-5.313c0-7.763-3.005-14.835-7.908-20.123c3.473-2.686,4.387-3.381,6.128-3.87
			c2.201-0.619,3.493-0.046,4.567,0.356c2.842,1.064,4.078-2.55,2.662-4.6c-1.114-1.615-2.818-2.527-4.814-2.718
			c-2.938-0.281-6.352,1.261-9.281,3.103c0.094-5.187-0.908-11.376-5.56-14.366c-1.567-1.008-3.657-0.554-4.664,1.014
			c-1.008,1.568-0.554,3.656,1.015,4.664c2.2,1.415,2.686,6.095,2.359,10.506c-4.202-2.29-9.018-3.593-14.131-3.593
			c-16.337,0-29.629,13.291-29.629,29.629c0,2.955,0.44,5.807,1.249,8.502c-74.76,63.079-76.087,64.69-76.636,65.257
			C0.873,124.649,0,128.012,0,133.333v60.415c0,3.369,2.517,5.909,5.856,5.909l0,0c0.392,0,0.794-0.036,1.193-0.105
			c2.376-0.41,80.824-13.643,138.104-23.304c25.139-4.24,45.486-7.672,51.855-8.747c2.27-0.356,4.977-1.671,4.977-5.907
			c0-0.184,0.44-48.883,0.44-61.668C202.424,96.485,201.156,93.141,200.891,92.48z M111.079,22.644
			c12.614,0,22.879,10.264,22.879,22.879c0,12.615-10.263,22.879-22.879,22.879S88.2,58.138,88.2,45.522
			C88.2,32.907,98.463,22.644,111.079,22.644z M111.079,75.151c12.155,0,22.62-7.36,27.183-17.855
			c19.436,6.185,36.59,16.585,51.08,30.972c0.967,0.959,3.118,2.866-0.836,3.543c-24.902,4.265-167.465,27.734-169.233,28.075
			c-1.938,0.373-4.413,0.674-1.405-2.055c8.626-7.42,27.511-23.483,67.649-57.354C90.668,69.248,100.194,75.151,111.079,75.151z
			 M189.25,161.964c-9.541,1.49-25.967,4.38-45.221,7.628c-49.744,8.391-115.409,19.752-133.456,22.517
			c-2.463,0.377-3.792-1.331-3.741-4.576c0.227-14.306,0.84-53.232,0.84-55.798c0-3.148,3.308-3.628,3.308-3.628
			s177.203-29.273,179.714-29.762c2.511-0.489,4.729-0.4,4.729,2.868c0,2.644-0.117,39.67-0.165,54.075
			C195.247,158.68,194.561,161.135,189.25,161.964z"/>
		<path d="M70.795,106.46c7.987,0,14.243-4.993,14.243-11.366c0-6.374-6.256-11.366-14.243-11.366s-14.244,4.993-14.244,11.366
			C56.552,101.467,62.808,106.46,70.795,106.46z M70.795,90.478c4.416,0,7.493,2.433,7.493,4.616c0,2.183-3.077,4.616-7.493,4.616
			s-7.494-2.433-7.494-4.616C63.301,92.911,66.379,90.478,70.795,90.478z"/>
		<path d="M146.832,91.133c7.986,0,14.244-4.993,14.244-11.366s-6.258-11.366-14.244-11.366c-7.987,0-14.243,4.993-14.243,11.366
			C132.589,86.142,138.845,91.133,146.832,91.133z M146.832,75.151c4.416,0,7.494,2.433,7.494,4.616
			c0,2.184-3.077,4.616-7.494,4.616c-4.416,0-7.493-2.433-7.493-4.616C139.339,77.583,142.416,75.151,146.832,75.151z"/>
		<path d="M107.691,99.818c7.986,0,14.242-4.993,14.242-11.366c0-6.374-6.257-11.366-14.242-11.366
			c-7.987,0-14.245,4.993-14.245,11.366C93.447,94.827,99.704,99.818,107.691,99.818z M107.691,83.836
			c4.416,0,7.492,2.433,7.492,4.616c0,2.183-3.076,4.616-7.492,4.616s-7.495-2.433-7.495-4.616
			C100.197,86.27,103.275,83.836,107.691,83.836z"/>
		<path d="M15.491,152.985c1.305,0,2.547-0.761,3.099-2.034c0.03-0.07,3.182-7.028,8.924-8.989c2.984-1.019,6.187-0.549,9.792,1.439
			c7.676,4.231,11.574,5.686,14.914,5.567c4.048-0.146,6.427-2.657,9.182-5.564c1.146-1.209,2.444-2.579,4.099-4.084
			c7.581-6.893,10.816-4.785,15.712-1.598c5.057,3.294,11.984,7.803,22.346-2.214c8.521-8.238,12.908-6.064,18.463-3.312
			c5.387,2.671,12.765,6.327,21.797-4.462c8.74-10.441,13.178-9.413,20.564-4.807c11.043,6.888,22.096,0.095,26.398-4.46
			c1.277-1.351,1.216-3.476-0.131-4.758c-1.346-1.282-3.479-1.228-4.767,0.114c-0.356,0.372-8.84,9.045-17.928,3.377
			c-11.554-7.205-19.498-5.523-29.312,6.201c-5.621,6.714-8.295,5.388-13.625,2.747c-5.994-2.973-14.205-7.042-26.151,4.507
			c-6.494,6.278-9.15,4.549-13.971,1.411c-5.274-3.436-12.499-8.139-23.936,2.259c-1.841,1.673-3.292,3.205-4.458,4.435
			c-2.446,2.581-3.337,3.419-4.527,3.463c-2.328,0.086-7.078-2.346-11.41-4.733c-5.29-2.916-10.415-3.562-15.233-1.915
			c-8.629,2.947-12.764,12.296-12.936,12.693c-0.741,1.71,0.045,3.696,1.755,4.438C14.588,152.896,15.043,152.985,15.491,152.985z"
			/>
		<path d="M187.163,138.325c-0.356,0.372-8.841,9.046-17.929,3.377c-11.553-7.205-19.496-5.523-29.312,6.201
			c-5.621,6.714-8.296,5.388-13.623,2.747c-5.995-2.973-14.205-7.043-26.153,4.507c-6.493,6.278-9.149,4.549-13.97,1.41
			c-5.275-3.435-12.499-8.139-23.936,2.26c-1.841,1.673-3.292,3.205-4.458,4.435c-2.446,2.581-3.337,3.421-4.527,3.464
			c-2.329,0.086-7.078-2.346-11.41-4.733c-5.29-2.916-10.414-3.56-15.232-1.915c-8.629,2.947-12.764,12.297-12.936,12.693
			c-0.739,1.706,0.043,3.684,1.747,4.429c0.439,0.192,0.896,0.283,1.347,0.283c1.299,0,2.538-0.755,3.096-2.019
			c0.031-0.069,3.167-7.052,8.958-9.009c2.976-1.006,6.169-0.532,9.762,1.449c7.676,4.231,11.582,5.688,14.913,5.567
			c4.048-0.146,6.427-2.657,9.183-5.564c1.145-1.209,2.444-2.579,4.098-4.083c7.581-6.893,10.816-4.786,15.712-1.597
			c5.057,3.293,11.983,7.803,22.345-2.215c8.523-8.239,12.909-6.064,18.464-3.312c5.386,2.671,12.765,6.327,21.798-4.461
			c8.74-10.441,13.176-9.414,20.564-4.807c11.043,6.888,22.097,0.094,26.398-4.461c1.277-1.351,1.215-3.476-0.131-4.758
			C190.584,136.93,188.451,136.984,187.163,138.325z"/>
	</g>
</g>
</svg>