<?xml version="1.0" encoding="iso-8859-1"?>
<!-- Uploaded to: SVG Repo, www.svgrepo.com, Generator: SVG Repo Mixer Tools -->
<svg fill="#000000" version="1.1" id="Layer_1" xmlns="http://www.w3.org/2000/svg" xmlns:xlink="http://www.w3.org/1999/xlink" 
	 viewBox="0 0 512 512" xml:space="preserve">
<g>
	<g>
		<rect x="136.778" y="170.709" width="240.053" height="15.656"/>
	</g>
</g>
<g>
	<g>
		<rect x="161.827" y="138.354" width="14.612" height="15.656"/>
	</g>
</g>
<g>
	<g>
		<rect x="208.794" y="122.698" width="48.011" height="15.656"/>
	</g>
</g>
<g>
	<g>
		<rect x="256.805" y="107.043" width="15.656" height="15.656"/>
	</g>
</g>
<g>
	<g>
		<rect x="303.772" y="138.354" width="24.005" height="15.656"/>
	</g>
</g>
<g>
	<g>
		<rect x="200.444" y="90.344" width="15.656" height="15.656"/>
	</g>
</g>
<g>
	<g>
		<path d="M256.54,0L65.84,174.116v66.937h381.396v-66.937L256.54,0z M431.582,225.397H81.496v-39.035h40.669v-15.656H92.793
			L207.104,66.336h49.699V50.68H224.25L256.539,21.2l67.724,61.836h-20.491v15.656h37.639l17.147,15.656h-6.775v15.656h23.922
			l44.581,40.705h-28.843v15.656h40.139V225.397z"/>
	</g>
</g>
<g>
	<g>
		<path d="M427.484,249.25H85.596c-10.893,0-19.754,8.862-19.754,19.754c0,10.892,8.862,19.754,19.754,19.754h341.888
			c10.893,0,19.754-8.862,19.754-19.754S438.377,249.25,427.484,249.25z M427.484,273.102H85.596c-2.261,0-4.099-1.839-4.099-4.099
			s1.839-4.099,4.099-4.099h341.888c2.26,0,4.099,1.839,4.099,4.099S429.743,273.102,427.484,273.102z"/>
	</g>
</g>
<g>
	<g>
		<polygon points="277.15,296.955 240.638,333.467 204.126,296.955 73.668,296.955 73.668,312.611 197.641,312.611 240.638,355.607 
			283.634,312.611 439.41,312.611 439.41,296.955 		"/>
	</g>
</g>
<g>
	<g>
		<rect x="74.156" y="322.047" width="126.289" height="15.656"/>
	</g>
</g>
<g>
	<g>
		<rect x="279.766" y="322.047" width="158.644" height="15.656"/>
	</g>
</g>
<g>
	<g>
		<rect x="74.156" y="393.019" width="70.972" height="15.656"/>
	</g>
</g>
<g>
	<g>
		<rect x="152.434" y="393.019" width="104.371" height="15.656"/>
	</g>
</g>
<g>
	<g>
		<rect x="264.111" y="393.019" width="103.327" height="15.656"/>
	</g>
</g>
<g>
	<g>
		<rect x="376.831" y="393.019" width="61.579" height="15.656"/>
	</g>
</g>
<g>
	<g>
		<path d="M427.484,345.007H264.111v15.656h163.373c2.194,0,3.613,1.483,3.621,3.78c-0.007,2.211-1.46,4.569-3.621,4.569H85.596
			c-2.361,0-5.154-2.478-5.178-4.582c0.022-1.87,2.624-3.768,5.178-3.768H216.1v-15.656H85.596
			c-11.275,0-20.803,8.878-20.833,19.396c0,0.008,0,0.017,0,0.025s0,0.017,0,0.025c0.029,10.774,9.752,20.214,20.833,20.214h341.888
			c10.618,0,19.258-9.063,19.276-20.208c0-0.006,0-0.01,0-0.017c0-0.005,0-0.011,0-0.017
			C446.742,353.533,438.282,345.007,427.484,345.007z"/>
	</g>
</g>
<g>
	<g>
		<polygon points="388.462,415.979 351.95,452.491 315.438,415.979 74.156,415.979 74.156,431.634 308.954,431.634 351.95,474.631 
			394.947,431.634 438.41,431.634 438.41,415.979 		"/>
	</g>
</g>
<g>
	<g>
		<polygon points="391.443,439.984 391.443,455.64 431.104,455.64 431.104,496.344 80.418,496.344 80.418,455.64 303.772,455.64 
			303.772,439.984 64.762,439.984 64.762,512 446.76,512 446.76,439.984 		"/>
	</g>
</g>
</svg>