<?xml version="1.0" encoding="iso-8859-1"?>
<!-- Uploaded to: SVG Repo, www.svgrepo.com, Generator: SVG Repo Mixer Tools -->
<!DOCTYPE svg PUBLIC "-//W3C//DTD SVG 1.1//EN" "http://www.w3.org/Graphics/SVG/1.1/DTD/svg11.dtd">
<svg fill="#000000" version="1.1" id="Capa_1" xmlns="http://www.w3.org/2000/svg" xmlns:xlink="http://www.w3.org/1999/xlink" 
	 width="800px" height="800px" viewBox="0 0 211.573 211.573"
	 xml:space="preserve">
<g>
	<g>
		<path d="M208.424,51.319h-33.033c-1.74,0-3.149,1.41-3.149,3.15c0,1.74,1.409,3.15,3.149,3.15h4.748
			c-1.654,39.58-34.371,71.269-74.352,71.269c-39.98,0-72.697-31.688-74.353-71.269h126.63c1.74,0,3.15-1.41,3.15-3.15
			c0-1.74-1.41-3.15-3.15-3.15H3.15c-1.74,0-3.15,1.41-3.15,3.15c0,28.257,11.004,54.822,30.984,74.801
			c19.981,19.98,46.546,30.984,74.803,30.984s54.822-11.004,74.802-30.984c19.98-19.98,30.984-46.545,30.984-74.801
			C211.574,52.729,210.164,51.319,208.424,51.319z M105.787,153.955c-53.803,0-97.767-42.933-99.438-96.336h18.787
			c1.661,43.053,37.198,77.567,80.651,77.567c43.452,0,78.988-34.515,80.65-77.567h18.787
			C203.555,111.022,159.59,153.955,105.787,153.955z"/>
		<path d="M54.041,85.774v7.914c0,1.864,1.511,3.375,3.375,3.375c1.864,0,3.375-1.511,3.375-3.375v-7.914
			c0-1.864-1.511-3.375-3.375-3.375C55.552,82.399,54.041,83.911,54.041,85.774z"/>
		<path d="M80.291,103.43v7.015c0,1.864,1.511,3.375,3.375,3.375c1.864,0,3.375-1.511,3.375-3.375v-7.015
			c0-1.864-1.511-3.375-3.375-3.375C81.802,100.055,80.291,101.564,80.291,103.43z"/>
		<path d="M69.191,66.429v7.015c0,1.864,1.511,3.375,3.375,3.375c1.864,0,3.375-1.511,3.375-3.375v-7.015
			c0-1.864-1.511-3.375-3.375-3.375C70.702,63.054,69.191,64.564,69.191,66.429z"/>
		<path d="M95.141,77.169v7.914c0,1.864,1.511,3.375,3.375,3.375s3.375-1.511,3.375-3.375v-7.914c0-1.864-1.511-3.375-3.375-3.375
			S95.141,75.306,95.141,77.169z"/>
		<path d="M152.368,71.712v7.465c0,1.864,1.511,3.375,3.375,3.375s3.375-1.511,3.375-3.375v-7.465c0-1.864-1.511-3.375-3.375-3.375
			S152.368,69.849,152.368,71.712z"/>
		<path d="M135.791,93.689v7.465c0,1.864,1.512,3.375,3.375,3.375c1.864,0,3.375-1.511,3.375-3.375v-7.465
			c0-1.864-1.511-3.375-3.375-3.375C137.303,90.314,135.791,91.826,135.791,93.689z"/>
		<path d="M120.941,69.936v7.915c0,1.864,1.511,3.375,3.375,3.375c1.863,0,3.375-1.511,3.375-3.375v-7.915
			c0-1.864-1.512-3.375-3.375-3.375C122.452,66.561,120.941,68.072,120.941,69.936z"/>
		<path d="M109.691,103.43v7.915c0,1.863,1.511,3.375,3.375,3.375c1.863,0,3.375-1.512,3.375-3.375v-7.915
			c0-1.864-1.512-3.375-3.375-3.375C111.202,100.055,109.691,101.564,109.691,103.43z"/>
	</g>
</g>
</svg>