<?xml version="1.0" encoding="iso-8859-1"?>
<!-- Uploaded to: SVG Repo, www.svgrepo.com, Generator: SVG Repo Mixer Tools -->
<svg fill="#000000" height="800px" width="800px" version="1.1" id="Layer_1" xmlns="http://www.w3.org/2000/svg" xmlns:xlink="http://www.w3.org/1999/xlink" 
	 viewBox="0 0 512 512" xml:space="preserve">
<g>
	<g>
		<g>
			<path d="M51.2,247.916c-4.465,0-8.084,3.619-8.084,8.084c0,117.384,95.499,212.884,212.884,212.884
				c4.465,0,8.084-3.618,8.084-8.084c0-4.466-3.62-8.084-8.084-8.084C147.53,452.716,59.284,364.47,59.284,256
				C59.284,251.534,55.665,247.916,51.2,247.916z"/>
			<path d="M121.534,247.916c-4.966,0-9.635-1.934-13.146-5.445c-3.157-3.157-8.276-3.158-11.433-0.001
				c-3.157,3.157-3.157,8.276,0,11.432c6.565,6.567,15.294,10.182,24.58,10.182c19.166,0.001,34.76-15.593,34.76-34.76v-22.099
				c0-19.167-15.594-34.761-34.761-34.761H99.435c-19.167,0-34.761,15.594-34.761,34.761c0,9.284,3.615,18.014,10.181,24.579
				c3.157,3.157,8.276,3.158,11.433,0.001c3.157-3.157,3.157-8.276,0-11.432c-3.512-3.513-5.446-8.181-5.446-13.147
				c0-10.253,8.341-18.594,18.593-18.594h22.1c10.252,0,18.593,8.341,18.593,18.593v22.099
				C140.126,239.575,131.786,247.916,121.534,247.916z"/>
			<path d="M237.193,215.522c-3.158-3.156-8.276-3.157-11.433,0.001c-6.564,6.565-10.181,15.294-10.181,24.579
				c0,19.167,15.594,34.761,34.761,34.761h22.1c19.166,0,34.76-15.594,34.76-34.761v-22.099c0-19.167-15.594-34.761-34.761-34.761
				c-9.285,0-18.015,3.615-24.58,10.182c-3.157,3.157-3.156,8.276,0,11.432c3.158,3.156,8.276,3.157,11.433-0.001
				c3.511-3.512,8.18-5.446,13.146-5.446c10.252,0,18.593,8.341,18.593,18.593v22.099c0,10.252-8.341,18.593-18.593,18.593h-22.1
				c-10.252,0-18.593-8.341-18.593-18.593c0-4.966,1.934-9.634,5.446-13.147C240.35,223.798,240.349,218.679,237.193,215.522z"/>
			<path d="M436.491,242.583c3.158,3.156,8.276,3.157,11.433-0.001c6.565-6.565,10.181-15.295,10.181-24.579
				c0-19.167-15.594-34.761-34.76-34.761h-22.1c-19.167,0-34.761,15.594-34.761,34.761v22.099c0,19.167,15.594,34.761,34.759,34.76
				c9.286,0,18.015-3.615,24.58-10.182c3.157-3.156,3.157-8.275,0-11.432c-3.158-3.156-8.276-3.157-11.433,0.001
				c-3.511,3.512-8.18,5.446-13.146,5.446c-10.252,0-18.593-8.341-18.593-18.593v-22.099c0-10.252,8.341-18.593,18.593-18.593h22.1
				c10.252,0,18.593,8.341,18.593,18.593c0,4.966-1.934,9.634-5.445,13.147C433.334,234.307,433.335,239.426,436.491,242.583z"/>
			<path d="M469.95,130.411c-3.92,2.136-5.366,7.047-3.228,10.968c14.259,26.158,23.401,54.411,27.17,83.973
				c0.521,4.082,3.999,7.063,8.01,7.063c0.341,0,0.686-0.023,1.033-0.067c4.429-0.564,7.561-4.612,6.997-9.041
				c-4.025-31.567-13.787-61.735-29.014-89.668C478.783,129.721,473.873,128.277,469.95,130.411z"/>
			<path d="M287.292,18.191c36.468,4.75,71.725,18.07,102.307,38.606c-1.012,3.256-1.558,6.716-1.558,10.301
				c0,9.284,3.615,18.014,10.181,24.579c3.157,3.158,8.276,3.157,11.433,0.001c3.157-3.157,3.157-8.276,0-11.432
				c-3.512-3.513-5.446-8.181-5.446-13.147c0-10.253,8.341-18.594,18.593-18.594h22.1c10.251,0,18.592,8.341,18.592,18.593v22.099
				c0,10.252-8.341,18.593-18.593,18.593c-4.966,0-9.635-1.934-13.146-5.446c-3.157-3.157-8.276-3.158-11.433-0.001
				c-3.157,3.157-3.157,8.276,0,11.432c6.565,6.567,15.294,10.182,24.58,10.182c19.166,0.001,34.76-15.593,34.76-34.76V67.098
				c0-19.167-15.594-34.761-34.761-34.761h-22.1c-9.763,0-18.599,4.046-24.919,10.548C365.403,21.238,328.03,7.193,289.381,2.157
				c-4.428-0.583-8.484,2.546-9.061,6.973C279.744,13.557,282.865,17.614,287.292,18.191z"/>
			<path d="M293.997,414.989c19.167,0,34.761-15.594,34.761-34.761c0-9.285-3.615-18.014-10.181-24.58l-22.099-22.098
				c-6.565-6.567-15.295-10.182-24.58-10.182c-19.167,0-34.761,15.594-34.761,34.761v22.099c0,19.167,15.594,34.761,34.761,34.761
				H293.997z M253.306,380.228v-22.099c0-10.252,8.341-18.593,18.593-18.593c4.967,0,9.635,1.934,13.147,5.447l22.099,22.098
				c3.512,3.513,5.445,8.181,5.445,13.147c0,10.252-8.341,18.593-18.593,18.593h-22.1
				C261.646,398.821,253.305,390.48,253.306,380.228z"/>
			<path d="M427.767,423.378C382.231,470.1,321.23,495.832,256,495.832c-43.962,0-86.951-11.997-124.32-34.695
				c-3.817-2.32-8.789-1.103-11.107,2.713c-2.317,3.816-1.103,8.788,2.713,11.107C163.187,499.19,209.078,512,256,512
				c69.628,0,134.74-27.465,183.346-77.338c3.116-3.197,3.05-8.316-0.147-11.431C436.001,420.114,430.882,420.177,427.767,423.378z"
				/>
			<path d="M102.702,440.449c-47.226-39.295-77.323-94.345-84.745-155.012c-0.541-4.431-4.573-7.584-9.006-7.042
				c-4.432,0.542-7.585,4.575-7.043,9.006c7.925,64.77,40.047,123.536,90.453,165.477c1.51,1.257,3.344,1.869,5.166,1.869
				c2.317,0,4.62-0.993,6.218-2.914C106.601,448.403,106.134,443.306,102.702,440.449z"/>
			<path d="M500.444,332.27C508.114,307.664,512,282.029,512,256c0-4.466-3.62-8.084-8.084-8.084c-4.465,0-8.084,3.619-8.084,8.084
				c0,23.34-3.332,46.335-9.912,68.466c-2.776-0.716-5.684-1.097-8.68-1.097c-9.285,0-18.015,3.615-24.58,10.182
				c-3.157,3.157-3.156,8.276,0,11.432c3.158,3.156,8.276,3.157,11.433-0.001c3.511-3.512,8.18-5.445,13.146-5.445
				c10.252,0,18.593,8.341,18.593,18.593v22.099c0,10.252-8.341,18.593-18.593,18.593h-22.1c-10.252,0-18.593-8.341-18.593-18.593
				c0-4.966,1.934-9.634,5.446-13.147c3.157-3.157,3.156-8.276,0-11.432c-3.158-3.156-8.276-3.157-11.433,0.001
				c-6.564,6.565-10.181,15.294-10.181,24.579c0.002,19.167,15.596,34.761,34.763,34.761h22.1c19.166,0,34.76-15.594,34.76-34.761
				v-22.099C512,347.871,507.533,338.638,500.444,332.27z"/>
			<path d="M53.951,91.678c3.157-3.157,3.157-8.276,0-11.432c-3.512-3.513-5.446-8.182-5.446-13.148
				c0-10.252,8.341-18.593,18.593-18.593h22.1c10.251,0,18.592,8.341,18.592,18.593v22.099c0,10.252-8.341,18.593-18.593,18.593
				c-4.966,0-9.635-1.934-13.146-5.446c-3.157-3.157-8.276-3.158-11.433-0.001c-3.157,3.157-3.157,8.276,0,11.432
				c6.565,6.568,15.294,10.183,24.579,10.183c19.167,0,34.761-15.594,34.761-34.761V67.098c0-3.585-0.545-7.046-1.559-10.304
				C161.957,30.199,208.035,16.168,256,16.168c4.465,0,8.084-3.619,8.084-8.084S260.465,0,256,0
				c-50.902,0-99.816,14.806-141.885,42.884c-6.32-6.503-15.154-10.547-24.918-10.547H67.098c-19.167,0-34.761,15.594-34.761,34.761
				c0,9.284,3.615,18.014,10.181,24.579C45.675,94.834,50.794,94.833,53.951,91.678z"/>
			<path d="M8.084,264.084c4.465,0,8.084-3.619,8.084-8.084c0-44.047,12.041-87.108,34.821-124.528
				c2.322-3.814,1.112-8.787-2.701-11.11c-3.815-2.323-8.787-1.111-11.109,2.701C12.856,163.018,0,208.987,0,256
				C0,260.466,3.62,264.084,8.084,264.084z"/>
			<path d="M261.66,43.116h-22.1c-19.166,0-34.76,15.594-34.76,34.761v22.099c0,19.167,15.594,34.761,34.761,34.761
				c9.285,0,18.015-3.615,24.58-10.182c3.157-3.157,3.156-8.276,0-11.432c-3.158-3.156-8.276-3.157-11.433,0.001
				c-3.511,3.512-8.18,5.446-13.146,5.446c-10.253-0.001-18.594-8.342-18.594-18.594V77.877c0-10.252,8.341-18.593,18.593-18.593
				h22.1c10.251,0,18.591,8.341,18.591,18.593c0,4.966-1.934,9.634-5.445,13.147c-3.157,3.157-3.156,8.276,0,11.432
				c3.158,3.156,8.276,3.157,11.433-0.001c6.564-6.565,10.181-15.294,10.181-24.579C296.421,58.71,280.827,43.116,261.66,43.116z"/>
		</g>
	</g>
</g>
</svg>