<?xml version="1.0" encoding="iso-8859-1"?>
<!-- Uploaded to: SVG Repo, www.svgrepo.com, Generator: SVG Repo Mixer Tools -->
<svg fill="#000000" version="1.1" id="Layer_1" xmlns="http://www.w3.org/2000/svg" xmlns:xlink="http://www.w3.org/1999/xlink" 
	 viewBox="0 0 512.001 512.001" xml:space="preserve">
<g>
	<g>
		<rect x="256.5" y="376.442" width="15.589" height="15.589"/>
	</g>
</g>
<g>
	<g>
		<rect x="232.597" y="279.791" width="16.628" height="15.589"/>
	</g>
</g>
<g>
	<g>
		<path d="M312.024,0c-24.136,0-45.181,13.797-56.025,33.53C245.157,13.797,224.111,0,199.976,0
			c-35.19,0-63.819,28.825-63.819,64.015c0,21.95,17.859,39.808,39.809,39.808c21.95,0,39.808-17.955,39.808-39.906
			c0-8.942,7.275-16.314,16.216-16.314c8.796,0,15.963,7.459,16.195,15.617v57.459c-35.999,3.896-64.434,34.421-64.434,71.392v0.628
			l48.245,296.189c0.366,12.808,11.112,23.113,24.006,23.113c12.894,0,23.619-10.306,23.984-23.113l48.223-296.189v-0.628
			c0-36.97-28.435-67.496-64.434-71.392V63.623h0.022c0-8.314,7.275-16.02,16.216-16.02c8.942,0,16.217,7.47,16.217,16.412
			c0,21.95,17.858,39.808,39.808,39.808c21.95,0,39.809-17.955,39.809-39.906C375.843,28.727,347.214,0,312.024,0z M218.651,20.576
			c-14.471,0.442-28.121,7.953-40.574,22.328l11.783,10.207c8.553-9.873,17.404-15.466,26.348-16.693
			c-9.564,5.491-16.024,15.801-16.024,27.597c0,13.355-10.865,24.219-24.219,24.219s-24.22-10.865-24.22-24.219
			c0-26.594,21.635-48.23,48.23-48.23c7.489,0,14.579,1.726,20.909,4.786C220.148,20.556,219.406,20.552,218.651,20.576z
			 M311.448,184.177h-16.497v15.589h15.707l-2.878,17.667h-75.185v15.589h72.646l-13.036,80.023h-28.431v15.589h25.891
			l-18.285,112.241h-14.882v15.589h12.342l-5.068,31.106v0.628c0,4.528-3.266,8.212-7.794,8.212c-4.366,0-7.548-3.426-7.773-7.73
			h8.292v-15.589h-10.671l-8.123-49.885h18.794v-15.589h-21.334l-7.615-46.767h44.537v-15.589h-47.076l-13.2-81.063h29.097v-15.589
			h-31.635l-7.953-48.845h22.96v-15.589h-23.75c0.824-5.88,2.542-11.475,5.033-16.628h50.934v-15.589h-39.774
			c10.1-9.966,23.949-16.123,39.264-16.123C284.316,135.837,307.625,156.897,311.448,184.177z M336.034,88.235
			c-13.355,0-24.219-10.865-24.219-24.219c0-11.797-6.46-22.106-16.024-27.597c8.945,1.226,17.795,6.82,26.348,16.693l11.783-10.207
			c-12.452-14.375-26.103-21.887-40.574-22.328c-0.755-0.023-1.498-0.021-2.234-0.006c6.33-3.06,13.421-4.786,20.91-4.786
			c26.594,0,48.23,21.635,48.23,48.23C360.254,77.37,349.389,88.235,336.034,88.235z"/>
	</g>
</g>
</svg>