<?xml version="1.0" encoding="iso-8859-1"?>
<!-- Uploaded to: SVG Repo, www.svgrepo.com, Generator: SVG Repo Mixer Tools -->
<svg fill="#000000" version="1.1" id="Layer_1" xmlns="http://www.w3.org/2000/svg" xmlns:xlink="http://www.w3.org/1999/xlink" 
	 viewBox="0 0 512 512" xml:space="preserve">
<g>
	<g>
		<path d="M228.597,381.968l-37.782,30.227l-37.786-30.227H28.275v8.127C28.275,457.314,82.962,512,150.18,512h211.302
			c67.219,0,121.905-54.686,121.905-121.905v-8.127H228.597z M361.482,495.746H150.18c-55.522,0-101.178-43.051-105.342-97.524
			h102.489l43.489,34.788l43.483-34.788h232.525C462.661,452.697,417.004,495.746,361.482,495.746z"/>
	</g>
</g>
<g>
	<g>
		<polygon points="187.352,235.211 133.927,288.636 80.503,235.211 44.665,235.211 44.665,251.937 73.574,251.937 133.927,312.29 
			194.28,251.937 466.998,251.937 466.998,235.211 		"/>
	</g>
</g>
<g>
	<g>
		<rect x="44.665" y="260.3" width="32.407" height="16.726"/>
	</g>
</g>
<g>
	<g>
		<polygon points="341.765,260.3 308.657,293.407 275.55,260.3 191.018,260.3 191.018,277.026 268.622,277.026 308.657,317.062 
			348.693,277.026 466.998,277.026 466.998,260.3 		"/>
	</g>
</g>
<g>
	<g>
		<path d="M361.483,97.523h-97.287V72.677c23.222-2.574,40.4-15.72,40.4-32.043s-17.179-29.468-40.401-32.041V0h-16.726v8.593
			c-23.222,2.574-40.4,15.72-40.4,32.042c0,16.322,17.178,29.469,40.4,32.043v24.846h-97.287
			c-67.219,0-121.905,54.687-121.905,121.905v8.127h446.985h8.127v-8.127C483.388,152.209,428.701,97.523,361.483,97.523z
			 M223.324,40.635c0-7.673,13.903-16.254,32.508-16.254c18.606,0,32.508,8.582,32.508,16.254c0,7.672-13.903,16.255-32.508,16.255
			C237.226,56.89,223.324,48.307,223.324,40.635z M44.839,211.302c4.163-54.474,49.82-97.523,105.342-97.523h211.301
			c55.522,0,101.178,43.051,105.342,97.525L44.839,211.302z"/>
	</g>
</g>
<g>
	<g>
		<rect x="264.199" y="32.407" width="15.681" height="16.726"/>
	</g>
</g>
<g>
	<g>
		<rect x="68.709" y="187.123" width="60.632" height="16.726"/>
	</g>
</g>
<g>
	<g>
		<rect x="137.708" y="187.123" width="24.044" height="16.726"/>
	</g>
</g>
<g>
	<g>
		<rect x="223.429" y="187.123" width="88.857" height="16.726"/>
	</g>
</g>
<g>
	<g>
		<rect x="85.439" y="333.476" width="32.407" height="16.726"/>
	</g>
</g>
<g>
	<g>
		<rect x="117.846" y="316.75" width="15.681" height="16.726"/>
	</g>
</g>
<g>
	<g>
		<rect x="182.659" y="333.476" width="49.133" height="16.726"/>
	</g>
</g>
<g>
	<g>
		<polygon points="165.929,284.343 165.929,301.069 230.743,301.069 230.743,308.387 247.469,308.387 247.469,301.069 
			272.558,301.069 272.558,284.343 		"/>
	</g>
</g>
<g>
	<g>
		<rect x="264.199" y="325.113" width="24.044" height="16.726"/>
	</g>
</g>
<g>
	<g>
		<path d="M438.689,284.343h-92.954v16.726h92.954c0.474,0,0.943,0.013,1.411,0.036c0.155,0.007,0.306,0.023,0.46,0.032
			c0.313,0.02,0.624,0.041,0.934,0.071c0.183,0.018,0.364,0.043,0.545,0.065c0.277,0.032,0.554,0.065,0.828,0.105
			c0.194,0.028,0.387,0.064,0.579,0.096c0.258,0.044,0.517,0.087,0.773,0.138c0.199,0.04,0.394,0.084,0.592,0.128
			c0.247,0.054,0.494,0.109,0.739,0.17c0.199,0.049,0.396,0.104,0.594,0.157c0.238,0.065,0.477,0.131,0.713,0.202
			c0.197,0.06,0.392,0.121,0.588,0.185c0.232,0.075,0.464,0.153,0.694,0.234c0.194,0.069,0.388,0.14,0.58,0.212
			c0.226,0.086,0.452,0.174,0.674,0.266c0.19,0.077,0.38,0.157,0.568,0.238c0.221,0.096,0.44,0.195,0.659,0.297
			c0.185,0.086,0.37,0.172,0.553,0.262c0.216,0.107,0.431,0.217,0.644,0.328c0.179,0.094,0.359,0.187,0.535,0.284
			c0.212,0.117,0.421,0.239,0.63,0.362c0.172,0.1,0.346,0.201,0.516,0.305c0.209,0.128,0.414,0.261,0.619,0.395
			c0.164,0.107,0.33,0.211,0.492,0.321c0.21,0.142,0.415,0.292,0.621,0.439c0.151,0.109,0.304,0.214,0.453,0.326
			c0.224,0.167,0.441,0.342,0.66,0.515c0.125,0.099,0.253,0.196,0.376,0.297c0.336,0.276,0.664,0.559,0.987,0.851
			c0.001,0.001,0.001,0.001,0.002,0.002h-23.114v16.726h32.098c0.09,0.608,0.155,1.224,0.206,1.844
			c0.01,0.133,0.022,0.266,0.03,0.399c0.043,0.63,0.072,1.264,0.072,1.905c0,15.582-12.699,28.259-28.31,28.259h-84.591v-7.318
			h39.724v-16.726h-40.77v15.681h-15.681v8.363H81.102c-15.476,0-28.067-12.685-28.074-28.28
			c0.006-15.537,12.598-28.173,28.074-28.173h20.014v-16.726H81.102c-24.694,0-44.785,20.134-44.8,44.884c0,0.004,0,0.007,0,0.013
			c0,0.004,0,0.008,0,0.013c0.015,24.811,20.106,44.993,44.8,44.993h357.587c24.833,0,45.036-20.18,45.036-45.036
			C483.725,304.47,463.522,284.343,438.689,284.343z"/>
	</g>
</g>
<g>
	<g>
		<rect x="245.382" y="405.607" width="122.309" height="16.726"/>
	</g>
</g>
<g>
	<g>
		<rect x="383.372" y="405.607" width="24.044" height="16.726"/>
	</g>
</g>
<g>
	<g>
		<rect x="231.792" y="439.06" width="40.77" height="16.726"/>
	</g>
</g>
</svg>