<?xml version="1.0" encoding="iso-8859-1"?>
<!-- Uploaded to: SVG Repo, www.svgrepo.com, Generator: SVG Repo Mixer Tools -->
<svg fill="#000000" height="800px" width="800px" version="1.1" id="Capa_1" xmlns="http://www.w3.org/2000/svg" xmlns:xlink="http://www.w3.org/1999/xlink" 
	 viewBox="0 0 511 511" xml:space="preserve">
<g>
	<path d="M143.5,232c-17.369,0-31.5,14.131-31.5,31.5s14.131,31.5,31.5,31.5s31.5-14.131,31.5-31.5S160.869,232,143.5,232z
		 M143.5,280c-9.098,0-16.5-7.402-16.5-16.5s7.402-16.5,16.5-16.5s16.5,7.402,16.5,16.5S152.598,280,143.5,280z"/>
	<path d="M331.278,262.673c1.434,0.219,2.835,0.327,4.222,0.327c17.369,0,31.5-14.131,31.5-31.5S352.869,200,335.5,200
		c-1.387,0-2.789,0.108-4.222,0.327C322.299,190.022,309.268,184,295.5,184c-26.191,0-47.5,21.308-47.5,47.5s21.309,47.5,47.5,47.5
		C309.268,279,322.299,272.978,331.278,262.673z M322.165,250.002C316.067,258.767,306.099,264,295.5,264
		c-17.92,0-32.5-14.579-32.5-32.5s14.58-32.5,32.5-32.5c10.599,0,20.567,5.233,26.665,13.998c1.874,2.694,5.282,3.857,8.413,2.87
		c1.877-0.592,3.441-0.868,4.923-0.868c9.098,0,16.5,7.402,16.5,16.5s-7.402,16.5-16.5,16.5c-1.481,0-3.046-0.276-4.923-0.868
		C327.446,246.145,324.039,247.308,322.165,250.002z"/>
	<path d="M439.5,296c-17.369,0-31.5,14.131-31.5,31.5s14.131,31.5,31.5,31.5s31.5-14.131,31.5-31.5S456.869,296,439.5,296z
		 M439.5,344c-9.098,0-16.5-7.402-16.5-16.5s7.402-16.5,16.5-16.5s16.5,7.402,16.5,16.5S448.598,344,439.5,344z"/>
	<path d="M215.5,304c-12.958,0-23.5,10.542-23.5,23.5s10.542,23.5,23.5,23.5s23.5-10.542,23.5-23.5S228.458,304,215.5,304z
		 M215.5,336c-4.687,0-8.5-3.813-8.5-8.5s3.813-8.5,8.5-8.5s8.5,3.813,8.5,8.5S220.187,336,215.5,336z"/>
	<path d="M351.5,288c-12.958,0-23.5,10.542-23.5,23.5s10.542,23.5,23.5,23.5s23.5-10.542,23.5-23.5S364.458,288,351.5,288z
		 M351.5,320c-4.687,0-8.5-3.813-8.5-8.5s3.813-8.5,8.5-8.5s8.5,3.813,8.5,8.5S356.187,320,351.5,320z"/>
	<path d="M447,231.5c0-12.958-10.542-23.5-23.5-23.5S400,218.542,400,231.5s10.542,23.5,23.5,23.5S447,244.458,447,231.5z
		 M415,231.5c0-4.687,3.813-8.5,8.5-8.5s8.5,3.813,8.5,8.5s-3.813,8.5-8.5,8.5S415,236.187,415,231.5z"/>
	<path d="M223,175.5c0-12.958-10.542-23.5-23.5-23.5S176,162.542,176,175.5s10.542,23.5,23.5,23.5S223,188.458,223,175.5z
		 M191,175.5c0-4.687,3.813-8.5,8.5-8.5s8.5,3.813,8.5,8.5s-3.813,8.5-8.5,8.5S191,180.187,191,175.5z"/>
	<path d="M71.5,207c12.958,0,23.5-10.542,23.5-23.5S84.458,160,71.5,160S48,170.542,48,183.5S58.542,207,71.5,207z M71.5,175
		c4.687,0,8.5,3.813,8.5,8.5s-3.813,8.5-8.5,8.5s-8.5-3.813-8.5-8.5S66.813,175,71.5,175z"/>
	<path d="M503.5,183c4.142,0,7.5-3.358,7.5-7.5v-48c0-8.547-6.953-15.5-15.5-15.5h-424C32.075,112,0,144.075,0,183.5v144
		C0,366.925,32.075,399,71.5,399h224c4.142,0,7.5-3.358,7.5-7.5c0-13.509,10.991-24.5,24.5-24.5s24.5,10.991,24.5,24.5
		c0,4.142,3.358,7.5,7.5,7.5h136c8.547,0,15.5-6.953,15.5-15.5v-160c0-4.142-3.358-7.5-7.5-7.5c-9.098,0-16.5-7.402-16.5-16.5
		S494.402,183,503.5,183z M496,230.098V383.5c0,0.276-0.224,0.5-0.5,0.5H366.286c-3.514-18.205-19.57-32-38.786-32
		s-35.271,13.795-38.786,32H71.5C40.346,384,15,358.654,15,327.5v-144c0-31.154,25.346-56.5,56.5-56.5h424
		c0.276,0,0.5,0.224,0.5,0.5v41.402c-13.76,3.373-24,15.812-24,30.598S482.24,226.725,496,230.098z"/>
	<path d="M471.5,144h-16c-4.142,0-7.5,3.358-7.5,7.5s3.358,7.5,7.5,7.5h16c4.142,0,7.5-3.358,7.5-7.5S475.642,144,471.5,144z"/>
	<path d="M311.5,159h112c4.142,0,7.5-3.358,7.5-7.5s-3.358-7.5-7.5-7.5h-112c-4.142,0-7.5,3.358-7.5,7.5S307.358,159,311.5,159z"/>
	<path d="M39.5,295.001c4.142,0,7.5-3.358,7.5-7.5V271.5c0-4.142-3.358-7.5-7.5-7.5s-7.5,3.358-7.5,7.5v16.001
		C32,291.643,35.358,295.001,39.5,295.001z"/>
	<path d="M127.5,352h-56C57.991,352,47,341.009,47,327.5v-7.999c0-4.142-3.358-7.5-7.5-7.5s-7.5,3.358-7.5,7.5v7.999
		c0,21.78,17.72,39.5,39.5,39.5h56c4.142,0,7.5-3.358,7.5-7.5S131.642,352,127.5,352z"/>
</g>
</svg>