<?xml version="1.0" encoding="iso-8859-1"?>
<!-- Uploaded to: SVG Repo, www.svgrepo.com, Generator: SVG Repo Mixer Tools -->
<svg fill="#000000" height="800px" width="800px" version="1.1" id="Layer_1" xmlns="http://www.w3.org/2000/svg" xmlns:xlink="http://www.w3.org/1999/xlink" 
	 viewBox="0 0 311.017 311.017" xml:space="preserve">
<g>
	<g>
		<g>
			<path d="M219.615,216.957c-1.324-0.204-2.54,0.712-2.736,2.024l-4.368,29.34c-0.196,1.316,0.712,2.54,2.024,2.736
				c0.124,0.016,0.244,0.028,0.36,0.028c1.172,0,2.196-0.856,2.372-2.052l4.368-29.34
				C221.839,218.373,220.926,217.149,219.615,216.957z"/>
			<path d="M142.454,205.757c-1.332,0-2.408,1.076-2.408,2.408v23.94c0,1.332,1.076,2.408,2.408,2.408
				c1.332,0,2.408-1.076,2.408-2.408v-23.94C144.863,206.833,143.786,205.757,142.454,205.757z"/>
			<path d="M244.066,181.077c5.752-4.524,9.52-11.46,9.52-19.328c0-11.036-7.336-20.292-17.348-23.44
				c3.46-3.468,5.604-8.252,5.604-13.528c0-10.172-7.984-18.44-18.02-19.06c2.816-3.364,4.584-7.7,4.584-12.492
				c0-9.728-7.088-17.888-16.48-18.98c-1.196-0.132-2.38,0.364-3.124,1.32c-0.7,0.912-4.448,4.332-22.912,10.384
				c-0.364-17.688-13.112-31.1-30.32-32.224c1.608-13.056,5.584-26.528,14.212-35.468c11.064-11.46,30.244-13.96,45.288-13.312
				c3.124,0.136,3.116-4.72,0-4.852c-16.452-0.712-36.656,2.336-48.72,14.736c-13.328,13.7-16.668,36.676-16.596,54.896
				c0.012,3.124,4.864,3.128,4.852,0c-0.016-3.544,0.148-7.336,0.464-11.204c14.968,0.904,26.04,12.7,26.04,28.196
				c0,15.62-13.432,28.328-29.948,28.328c-16.512,0-29.952-12.708-29.952-28.328c0-11.492,7.248-21.764,18.464-26.172
				c1.24-0.488,1.844-1.888,1.36-3.124c-0.488-1.24-1.888-1.836-3.124-1.36c-13.068,5.14-21.512,17.168-21.512,30.656
				c0,18.276,15.592,33.148,34.764,33.148c8.716,0,16.676-3.1,22.784-8.172c0.568,0.416,1.232,0.708,1.992,0.708
				c0,0,1.528,0.304,2.024,0.304h0.02l44.684-0.22c6.784,0,12.292,5.512,12.292,12.296c0,6.78-5.512,12.288-12.292,12.288h-91.268
				c-1.9,0-3.444,1.544-3.444,3.444c0,1.9,1.544,3.44,3.444,3.44h91.268h6.244c9.812,0,17.796,7.98,17.796,17.792
				s-7.984,17.796-17.796,17.796h-48.516c-1.9,0-3.44,1.54-3.44,3.44c0,1.9,1.54,3.44,3.44,3.44h48.516
				c2.636,0,5.128-0.524,7.512-1.292c0.264,0.208,0.528,0.42,0.856,0.544c9.908,3.812,15.824,8.372,15.824,12.204
				c0,2.272-2.228,4.84-6.18,7.384c-0.44,0.156-0.832,0.388-1.18,0.708c-1.264-1.124-2.404-2.528-3.676-4.168
				c-2.88-3.7-6.148-7.888-12.62-7.888c-6.468,0-9.732,4.184-12.624,7.9c-2.828,3.64-5.268,6.78-10.228,6.78
				c-4.956,0-7.4-3.144-10.244-6.8c-2.876-3.692-6.136-7.88-12.608-7.88c-6.476,0-9.744,4.192-12.628,7.9
				c-2.764,3.556-5.156,6.636-9.888,6.78c-0.092-0.004-0.18-0.008-0.276-0.016c-4.884-0.044-7.316-3.168-10.128-6.78
				c-2.876-3.704-6.14-7.904-12.624-7.904c-6.484,0-9.744,4.2-12.628,7.908c-2.832,3.632-5.284,6.78-10.224,6.78
				c-4.944,0-7.396-3.144-10.232-6.784c-2.876-3.704-6.14-7.904-12.624-7.904c-6.476,0-9.736,4.196-12.628,7.908
				c-2.724,3.496-5.092,6.536-9.66,6.764c-7.836-3.5-12.312-7.38-12.312-10.684c0-3.512,1.784-8.144,15.692-12.852
				c0.088-0.028,0.144-0.096,0.228-0.132c2.596,0.932,5.356,1.532,8.268,1.532h61.596c1.9,0,3.444-1.54,3.444-3.44
				c0-1.9-1.544-3.44-3.444-3.44H82.087c-9.812,0-17.796-7.984-17.796-17.796c0-9.812,7.984-17.792,17.796-17.792h6.252h9.84
				c1.9,0,3.44-1.544,3.44-3.44c0-1.9-1.54-3.444-3.44-3.444h-9.84c-6.784,0-12.296-5.512-12.296-12.288
				c0-6.784,5.512-12.296,12.32-12.296l22.38-0.16c1.9-0.016,3.432-1.564,3.416-3.464c-0.016-1.892-1.556-3.416-3.44-3.416h-0.024
				l-22.352,0.16c-10.572,0-19.18,8.604-19.18,19.18c0,5.272,2.144,10.056,5.604,13.524c-10.016,3.144-17.352,12.404-17.352,23.44
				c0,7.532,3.464,14.204,8.804,18.732c-10.448,4.432-15.196,9.916-15.196,17.396c0,4.68,3.004,8.984,8.844,12.864l19.156,97.488
				c0.32,1.608,1.732,2.776,3.372,2.776h142.38c1.596,0,2.984-1.1,3.348-2.652l22.88-97.508c5.94-3.912,8.992-8.256,8.992-12.968
				C259.991,191.509,254.618,185.869,244.066,181.077z M209.886,105.521h-30.124c2.744-3.78,4.668-8.128,5.568-12.816
				c0.632,0.18,1.304,0.24,1.98,0.024c16.276-5.28,22.584-8.884,25.408-11.344c5.124,1.344,8.812,6.176,8.812,11.844
				C221.531,100.009,216.307,105.521,209.886,105.521z M222.046,304.125h-12.972l6.744-45.312c0.2-1.32-0.712-2.54-2.024-2.736
				c-1.328-0.184-2.54,0.712-2.736,2.024l-6.844,46.02h-16.496l5.088-77.604c0.084-1.328-0.92-2.476-2.248-2.56
				c-1.304-0.132-2.468,0.92-2.56,2.244l-5.108,77.916h-16.18l0.032-20.364c0.004-1.332-1.072-2.408-2.404-2.412h-0.004
				c-1.328,0-2.404,1.076-2.408,2.404l-0.032,20.372h-17.028v-61.864c0-1.332-1.076-2.408-2.408-2.408
				c-1.332,0-2.408,1.076-2.408,2.408v61.872h-17.404l-1.516-23.228c-0.092-1.328-1.232-2.408-2.56-2.244
				c-1.328,0.084-2.332,1.232-2.248,2.56l1.496,22.912h-15.416l-12.144-75.444c-0.22-1.312-1.452-2.196-2.764-1.996
				c-1.312,0.216-2.204,1.452-1.996,2.764l12.02,74.672h-12.3l-17.524-89.164c0.14,0.064,0.256,0.128,0.396,0.188
				c0.308,0.132,0.64,0.22,0.976,0.26c0.188,0.028,0.408,0.048,0.572,0.048c5.948,0,9.796-2.808,12.656-5.864l2.028,12.544
				c0.192,1.18,1.208,2.024,2.372,2.024c0.128,0,0.26-0.008,0.388-0.032c1.312-0.208,2.204-1.444,1.992-2.76l-2.188-13.588
				c-0.144-0.872,0.092-2.804-0.676-3.1c2.712-3.488,3.324-3.904,6.284-3.904c2.988,0,4.444,1.7,7.2,5.252
				c2.82,3.616,6.616,8.396,13.504,9.256c-0.668,0.464-1.112,1.228-1.056,2.104l3.192,48.744c0.084,1.276,1.144,2.252,2.396,2.252
				c0.056,0,0.112,0,0.16-0.004c1.328-0.088,2.332-1.232,2.248-2.56l-3.192-48.748c-0.044-0.68-0.4-1.264-0.892-1.668
				c7.816-0.312,11.936-5.512,14.956-9.392c2.748-3.536,4.204-5.236,7.192-5.236c2.988,0,4.444,1.7,7.196,5.24
				c3.02,3.876,7.14,9.164,15.044,9.428c0.148,0.02,0.292,0.028,0.444,0.028c0.384,0,0.75-0.023,1.116-0.046l-0.072,58.002
				c0,1.416,1.076,2.568,2.404,2.568h0.004c1.328,0,2.408-1.144,2.408-2.556l0.074-59.048c4.604-1.789,7.475-5.464,9.726-8.368
				c2.756-3.536,4.216-5.232,7.196-5.232c2.976,0,4.432,1.696,7.192,5.232c3.092,3.988,7.336,9.448,15.66,9.448
				c8.324,0,12.568-5.46,15.668-9.456c2.748-3.524,4.204-5.22,7.184-5.22s4.44,1.696,7.196,5.236c1.6,2.052,3.792,4.84,6.82,6.816
				L222.046,304.125z"/>
			<path d="M157.426,80.193c4.212-1.36,7.928-4.404,8.36-9.008c0.292-3.108-4.56-3.088-4.852,0c-0.24,2.52-3.56,4.052-5.672,4.58
				c-3.536,0.88-6.98-0.044-9.672-2.468c-2.32-2.084-5.76,1.336-3.432,3.432C146.366,80.517,151.959,81.961,157.426,80.193z"/>
			<path d="M236.915,171.673c5.464-6.804,4.052-16.28-3.584-20.796c-2.696-1.592-5.14,2.604-2.452,4.192
				c4.732,2.796,6.132,8.772,2.604,13.172C231.546,170.653,234.959,174.109,236.915,171.673z"/>
			<path d="M228.019,129.469c1.88-4.688,0.628-10.032-2.9-13.58c-2.204-2.22-5.636,1.216-3.432,3.432
				c2.416,2.432,2.912,5.72,1.652,8.856C222.178,131.077,226.87,132.337,228.019,129.469z"/>
			<path d="M224.834,173.969c1.344,0,2.428-1.084,2.428-2.428s-1.084-2.428-2.428-2.428l-29.584,0.02
				c-1.344,0-2.428,1.084-2.428,2.428c0,1.34,1.084,2.428,2.428,2.428L224.834,173.969z"/>
		</g>
	</g>
</g>
</svg>