<?xml version="1.0" ?>
<!DOCTYPE svg  PUBLIC '-//W3C//DTD SVG 1.1//EN'  'http://www.w3.org/Graphics/SVG/1.1/DTD/svg11.dtd'>
<!-- Uploaded to: SVG Repo, www.svgrepo.com, Generator: SVG Repo Mixer Tools -->
<svg fill="#000000" width="800px" height="800px" viewBox="0 0 100 100" version="1.1" xml:space="preserve" xmlns="http://www.w3.org/2000/svg" xmlns:xlink="http://www.w3.org/1999/xlink">
<g id="_x31_"/>
<g id="_x32_"/>
<g id="_x33_"/>
<g id="_x34_"/>
<g id="_x35_"/>
<g id="_x36_"/>
<g id="_x37_">
<path d="M50,69.7c-25.6,0-40.3-5.8-40.3-15.9c0-6.8,6.5-14.5,16.6-19.8c2.9-1.5,6.1-2.8,9.4-3.7c3-0.9,6.1-1.5,9.2-1.8   c3.2-0.3,6.3-0.3,9.4,0c3.3,0.3,6.6,0.9,9.8,1.8c3.3,1,6.5,2.2,9.4,3.7c9.9,5.2,16.6,13.1,16.6,19.8C90.3,63.9,75.6,69.7,50,69.7z    M50,31.3c-1.5,0-3.1,0.1-4.7,0.2c-2.9,0.3-5.8,0.8-8.7,1.7c-3.1,0.9-6.1,2.1-8.8,3.5c-8.8,4.6-15,11.6-15,17.1   c0,8,14.3,12.9,37.3,12.9s37.3-4.9,37.3-12.9c0-5.5-6.2-12.5-15-17.1c-2.8-1.4-5.7-2.6-8.9-3.5c-3-0.9-6.2-1.4-9.3-1.7   C52.7,31.3,51.4,31.3,50,31.3z M49.7,47.2c-3.3,0-6.1-2.7-6.1-6.1V30c0-0.8,0.6-1.4,1.4-1.5c3.2-0.3,6.3-0.3,9.4,0   c0.8,0.1,1.4,0.7,1.4,1.5v11.2C55.8,44.5,53,47.2,49.7,47.2z M46.6,31.4v9.7c0,1.7,1.4,3.1,3.1,3.1s3.1-1.4,3.1-3.1v-9.8   C50.7,31.2,48.7,31.3,46.6,31.4z M68.4,50.5c-3.3,0-6.1-2.7-6.1-6.1V31.7c0-0.5,0.2-0.9,0.6-1.2c0.4-0.3,0.9-0.4,1.3-0.2   c3.3,1,6.5,2.2,9.4,3.7c0.5,0.3,0.8,0.8,0.8,1.3v9.1C74.4,47.8,71.7,50.5,68.4,50.5z M65.3,33.8v10.7c0,1.7,1.4,3.1,3.1,3.1   s3.1-1.4,3.1-3.1v-8.2C69.5,35.3,67.4,34.5,65.3,33.8z M31.6,50.5c-3.3,0-6.1-2.7-6.1-6.1v-9.1c0-0.6,0.3-1.1,0.8-1.3   c2.9-1.5,6.1-2.8,9.4-3.7c0.5-0.1,0.9,0,1.3,0.2c0.4,0.3,0.6,0.7,0.6,1.2v12.7C37.7,47.8,35,50.5,31.6,50.5z M28.6,36.3v8.1   c0,1.7,1.4,3.1,3.1,3.1s3.1-1.4,3.1-3.1V33.8C32.6,34.5,30.5,35.3,28.6,36.3z M27.1,60.5c0.8,0,1.5-0.7,1.5-1.5   c0-0.8-0.7-1.5-1.5-1.5c0,0,0,0,0,0c-5.3,0.1-8-3.4-8.1-3.6c-0.5-0.7-1.4-0.8-2.1-0.3c-0.7,0.5-0.8,1.4-0.3,2.1   c0.1,0.2,3.7,4.8,10.3,4.8C26.9,60.5,27,60.5,27.1,60.5z"/>
</g>
<g id="_x38_"/>
<g id="_x39_"/>
<g id="_x31_0"/>
<g id="_x31_1"/>
<g id="_x31_2"/>
<g id="_x31_3"/>
<g id="_x31_4"/>
<g id="_x31_5"/>
<g id="_x31_6"/>
<g id="_x31_7"/>
<g id="_x31_8"/>
<g id="_x31_9"/>
<g id="_x32_0"/>
<g id="_x32_1"/>
<g id="_x32_2"/>
<g id="_x32_3"/>
<g id="_x32_4"/>
</svg>